<?xml version="1.0" encoding="UTF-8" standalone="no"?>
<!-- Created with Inkscape (http://www.inkscape.org/) -->

<svg
   xmlns:dc="http://purl.org/dc/elements/1.1/"
   xmlns:cc="http://creativecommons.org/ns#"
   xmlns:rdf="http://www.w3.org/1999/02/22-rdf-syntax-ns#"
   xmlns:svg="http://www.w3.org/2000/svg"
   xmlns="http://www.w3.org/2000/svg"
   xmlns:sodipodi="http://sodipodi.sourceforge.net/DTD/sodipodi-0.dtd"
   xmlns:inkscape="http://www.inkscape.org/namespaces/inkscape"
   version="1.1"
   id="svg2"
   xml:space="preserve"
   width="166.08"
   height="194.66667"
   viewBox="0 0 166.08 194.66667"
   sodipodi:docname="rainbow_BioC.svg"
   inkscape:version="0.92.3 (2405546, 2018-03-11)"><metadata
     id="metadata8"><rdf:RDF><cc:Work
         rdf:about=""><dc:format>image/svg+xml</dc:format><dc:type
           rdf:resource="http://purl.org/dc/dcmitype/StillImage" /><dc:title /></cc:Work></rdf:RDF></metadata><defs
     id="defs6"><clipPath
       clipPathUnits="userSpaceOnUse"
       id="clipPath26"><path
         d="M 0,0 H 124.56 V 146 H 0 Z"
         id="path24"
         inkscape:connector-curvature="0" /></clipPath><clipPath
       clipPathUnits="userSpaceOnUse"
       id="clipPath26-6"><path
         d="M 0,0 H 124.56 V 146 H 0 Z"
         id="path24-1"
         inkscape:connector-curvature="0" /></clipPath><clipPath
       clipPathUnits="userSpaceOnUse"
       id="clipPath26-3"><path
         d="M 0,0 H 124.56 V 146 H 0 Z"
         id="path24-0"
         inkscape:connector-curvature="0" /></clipPath><clipPath
       clipPathUnits="userSpaceOnUse"
       id="clipPath26-39"><path
         d="M 0,0 H 124.56 V 146 H 0 Z"
         id="path24-08"
         inkscape:connector-curvature="0" /></clipPath><clipPath
       clipPathUnits="userSpaceOnUse"
       id="clipPath5452"><g
         id="g5550"
         transform="translate(-268.12471,-125.99965)"><g
           id="g5456"
           transform="translate(91.2842,80.4233)"><path
             d="m 0,0 c -0.464,0.017 -0.914,-0.242 -1.122,-0.688 -0.277,-0.598 -0.017,-1.306 0.581,-1.583 0.596,-0.275 1.304,-0.016 1.581,0.58 0.276,0.597 0.016,1.303 -0.581,1.58 C 0.31,-0.041 0.155,-0.004 0,0"
             style="fill:#3792ad;fill-opacity:1;fill-rule:nonzero;stroke:none"
             id="path5454"
             inkscape:connector-curvature="0" /></g><g
           id="g5460"
           transform="translate(51.7393,80.7539)"><path
             d="m 0,0 c -0.101,0.009 -0.205,0.009 -0.311,-0.002 -0.841,-0.092 -1.449,-0.849 -1.357,-1.69 0.092,-0.84 0.849,-1.449 1.691,-1.357 0.841,0.093 1.45,0.85 1.357,1.69 C 1.3,-0.622 0.71,-0.066 0,0"
             style="fill:#3792ad;fill-opacity:1;fill-rule:nonzero;stroke:none"
             id="path5458"
             inkscape:connector-curvature="0" /></g><g
           id="g5464"
           transform="translate(55.7095,83.6299)"><path
             d="m 0,0 c -0.114,0.011 -0.23,0.01 -0.348,-0.003 -0.947,-0.104 -1.63,-0.955 -1.527,-1.901 0.103,-0.946 0.955,-1.631 1.902,-1.527 0.946,0.104 1.629,0.956 1.526,1.902 C 1.463,-0.701 0.798,-0.074 0,0"
             style="fill:#3792ad;fill-opacity:1;fill-rule:nonzero;stroke:none"
             id="path5462"
             inkscape:connector-curvature="0" /></g><g
           id="g5468"
           transform="translate(94.0254,85.4243)"><path
             d="m 0,0 c -0.119,0.011 -0.24,0.01 -0.363,-0.003 -0.987,-0.108 -1.7,-0.996 -1.592,-1.982 0.107,-0.986 0.995,-1.698 1.981,-1.59 0.987,0.108 1.699,0.995 1.591,1.981 C 1.522,-0.731 0.832,-0.078 0,0"
             style="fill:#3792ad;fill-opacity:1;fill-rule:nonzero;stroke:none"
             id="path5466"
             inkscape:connector-curvature="0" /></g><g
           id="g5472"
           transform="translate(49.6733,76.9722)"><path
             d="m 0,0 c -0.067,0.006 -0.135,0.006 -0.205,-0.002 -0.557,-0.061 -0.96,-0.562 -0.899,-1.118 0.061,-0.558 0.562,-0.96 1.12,-0.899 0.557,0.061 0.959,0.563 0.897,1.12 C 0.859,-0.411 0.47,-0.043 0,0"
             style="fill:#3792ad;fill-opacity:1;fill-rule:nonzero;stroke:none"
             id="path5470"
             inkscape:connector-curvature="0" /></g><g
           id="g5476"
           transform="translate(60.4907,81.769)"><path
             d="m 0,0 c -0.131,0.012 -0.264,0.011 -0.399,-0.004 -1.083,-0.118 -1.868,-1.093 -1.749,-2.177 0.119,-1.082 1.094,-1.864 2.178,-1.747 1.084,0.121 1.866,1.094 1.747,2.178 C 1.673,-0.801 0.913,-0.084 0,0"
             style="fill:#3792ad;fill-opacity:1;fill-rule:nonzero;stroke:none"
             id="path5474"
             inkscape:connector-curvature="0" /></g><g
           id="g5480"
           transform="translate(88.8027,76.5762)"><path
             d="m 0,0 c -0.147,0.014 -0.299,0.013 -0.452,-0.004 -1.224,-0.134 -2.108,-1.236 -1.974,-2.46 0.134,-1.225 1.236,-2.108 2.46,-1.975 1.225,0.134 2.11,1.236 1.975,2.46 C 1.892,-0.907 1.033,-0.096 0,0"
             style="fill:#68981c;fill-opacity:1;fill-rule:nonzero;stroke:none"
             id="path5478"
             inkscape:connector-curvature="0" /></g><g
           id="g5484"
           transform="translate(85.3877,72.4468)"><path
             d="m 0,0 c -0.052,0.005 -0.103,0.004 -0.155,-0.002 -0.42,-0.046 -0.725,-0.424 -0.679,-0.844 0.047,-0.42 0.425,-0.725 0.845,-0.679 0.422,0.046 0.724,0.427 0.678,0.846 C 0.649,-0.311 0.354,-0.033 0,0"
             style="fill:#3792ad;fill-opacity:1;fill-rule:nonzero;stroke:none"
             id="path5482"
             inkscape:connector-curvature="0" /></g><g
           id="g5488"
           transform="translate(48.2432,72.958)"><path
             d="m 0,0 c 0,0 0.225,-37.068 0.016,-36.951 -1.071,0.599 -1.991,0.66 -2.908,0.62 -3.775,-0.15 -8.381,-3.541 -8.511,-7.92 -0.045,-1.82 0.176,-3.542 1.578,-4.575 0.877,-0.64 1.975,-0.687 3.071,-0.687 3.641,0 8.425,3.638 8.512,7.917 v 40.195 z"
             style="fill:#3792ad;fill-opacity:1;fill-rule:nonzero;stroke:none"
             id="path5486"
             inkscape:connector-curvature="0" /></g><g
           id="g5492"
           transform="translate(82.8301,70.6865)"><path
             d="m 0,0 c -0.067,0.006 -0.137,0.005 -0.207,-0.002 -0.561,-0.062 -0.967,-0.567 -0.906,-1.127 0.062,-0.56 0.567,-0.965 1.127,-0.904 0.562,0.062 0.965,0.565 0.905,1.126 C 0.865,-0.415 0.473,-0.045 0,0"
             style="fill:#3792ad;fill-opacity:1;fill-rule:nonzero;stroke:none"
             id="path5490"
             inkscape:connector-curvature="0" /></g><g
           id="g5496"
           transform="translate(69.332,74.3701)"><path
             d="m 0,0 c -0.127,0.011 -0.257,0.011 -0.389,-0.003 -1.05,-0.116 -1.81,-1.062 -1.695,-2.114 0.114,-1.051 1.061,-1.812 2.113,-1.696 C 1.08,-3.697 1.84,-2.751 1.725,-1.7 1.624,-0.78 0.887,-0.083 0,0"
             style="fill:#3792ad;fill-opacity:1;fill-rule:nonzero;stroke:none"
             id="path5494"
             inkscape:connector-curvature="0" /></g><g
           id="g5500"
           transform="translate(79.542,69.2207)"><path
             d="M 0,0 C -0.085,0.008 -0.171,0.007 -0.259,-0.002 -0.96,-0.078 -1.466,-0.709 -1.39,-1.41 c 0.078,-0.702 0.707,-1.208 1.41,-1.131 0.701,0.077 1.207,0.707 1.129,1.409 C 1.083,-0.52 0.592,-0.056 0,0"
             style="fill:#3792ad;fill-opacity:1;fill-rule:nonzero;stroke:none"
             id="path5498"
             inkscape:connector-curvature="0" /></g><g
           id="g5504"
           transform="translate(74.4131,71.1162)"><path
             d="M 0,0 C -0.646,0.021 -1.274,-0.337 -1.563,-0.961 -1.95,-1.792 -1.588,-2.78 -0.757,-3.166 0.076,-3.553 1.063,-3.19 1.448,-2.358 1.834,-1.526 1.472,-0.539 0.641,-0.153 0.433,-0.058 0.216,-0.007 0,0"
             style="fill:#3792ad;fill-opacity:1;fill-rule:nonzero;stroke:none"
             id="path5502"
             inkscape:connector-curvature="0" /></g><g
           id="g5508"
           transform="translate(79.3105,83.3086)"><path
             d="m 0,0 c -0.114,0.011 -0.229,0.01 -0.348,-0.003 -0.943,-0.103 -1.624,-0.952 -1.521,-1.894 0.103,-0.942 0.952,-1.623 1.895,-1.52 0.943,0.102 1.623,0.951 1.52,1.893 C 1.456,-0.699 0.795,-0.074 0,0"
             style="fill:#68981c;fill-opacity:1;fill-rule:nonzero;stroke:none"
             id="path5506"
             inkscape:connector-curvature="0" /></g><g
           id="g5512"
           transform="translate(74.3867,85.4897)"><path
             d="m 0,0 c -0.319,-0.019 -0.636,-0.13 -0.91,-0.34 -0.728,-0.555 -0.868,-1.597 -0.311,-2.326 0.556,-0.728 1.599,-0.867 2.326,-0.311 0.729,0.556 0.868,1.598 0.312,2.328 C 1.069,-0.194 0.532,0.031 0,0"
             style="fill:#68981c;fill-opacity:1;fill-rule:nonzero;stroke:none"
             id="path5510"
             inkscape:connector-curvature="0" /></g><g
           id="g5516"
           transform="translate(83.5244,80.1123)"><path
             d="m 0,0 c -0.26,0.017 -0.53,-0.014 -0.797,-0.1 l -0.102,-0.036 c -1.085,-0.413 -1.659,-1.613 -1.276,-2.673 0.366,-1.026 1.488,-1.557 2.552,-1.213 l 0.105,0.037 C 1.567,-3.571 2.14,-2.372 1.759,-1.312 1.482,-0.545 0.782,-0.053 0,0"
             style="fill:#68981c;fill-opacity:1;fill-rule:nonzero;stroke:none"
             id="path5514"
             inkscape:connector-curvature="0" /></g><g
           id="g5520"
           transform="translate(70.8193,83.4927)"><path
             d="m 0,0 c -0.085,0.008 -0.172,0.007 -0.261,-0.002 -0.699,-0.077 -1.205,-0.708 -1.13,-1.409 0.078,-0.701 0.708,-1.207 1.41,-1.13 0.702,0.076 1.207,0.706 1.129,1.408 C 1.083,-0.52 0.592,-0.055 0,0"
             style="fill:#68981c;fill-opacity:1;fill-rule:nonzero;stroke:none"
             id="path5518"
             inkscape:connector-curvature="0" /></g><g
           id="g5524"
           transform="translate(64.9844,78.5625)"><path
             d="m 0,0 c -0.161,0.015 -0.325,0.014 -0.491,-0.004 -1.332,-0.146 -2.294,-1.345 -2.149,-2.677 0.146,-1.332 1.345,-2.294 2.677,-2.148 1.332,0.146 2.294,1.343 2.148,2.675 C 2.058,-0.988 1.124,-0.105 0,0"
             style="fill:#3792ad;fill-opacity:1;fill-rule:nonzero;stroke:none"
             id="path5522"
             inkscape:connector-curvature="0" /></g><g
           id="g5528"
           transform="translate(68.207,80.4951)"><path
             d="m 0,0 c -0.059,0.005 -0.12,0.004 -0.182,-0.002 -0.489,-0.054 -0.843,-0.495 -0.789,-0.986 0.053,-0.491 0.494,-0.845 0.985,-0.791 0.491,0.053 0.846,0.495 0.792,0.985 C 0.758,-0.364 0.414,-0.039 0,0"
             style="fill:#68981c;fill-opacity:1;fill-rule:nonzero;stroke:none"
             id="path5526"
             inkscape:connector-curvature="0" /></g><g
           id="g5532"
           transform="translate(54.8647,72.5947)"><path
             d="m 0,0 c -0.135,0.012 -0.273,0.011 -0.413,-0.005 -1.121,-0.122 -1.932,-1.131 -1.809,-2.253 0.122,-1.121 1.131,-1.93 2.253,-1.807 1.122,0.122 1.931,1.129 1.809,2.253 C 1.732,-0.832 0.947,-0.088 0,0"
             style="fill:#68981c;fill-opacity:1;fill-rule:nonzero;stroke:none"
             id="path5530"
             inkscape:connector-curvature="0" /></g><g
           id="g5536"
           transform="translate(95.291,70.5098)"><path
             d="m 0,0 c -0.06,0.005 -0.119,0.005 -0.18,-0.001 -0.491,-0.054 -0.846,-0.496 -0.793,-0.987 0.055,-0.49 0.494,-0.845 0.985,-0.792 0.492,0.055 0.847,0.496 0.793,0.986 C 0.759,-0.364 0.414,-0.039 0,0"
             style="fill:#68981c;fill-opacity:1;fill-rule:nonzero;stroke:none"
             id="path5534"
             inkscape:connector-curvature="0" /></g><g
           id="g5540"
           transform="translate(59.9067,74.0483)"><path
             d="m 0,0 c -0.098,0.01 -0.198,0.008 -0.3,-0.003 -0.812,-0.089 -1.4,-0.82 -1.31,-1.632 0.088,-0.813 0.819,-1.402 1.632,-1.312 0.814,0.089 1.4,0.821 1.311,1.634 C 1.256,-0.603 0.686,-0.064 0,0"
             style="fill:#68981c;fill-opacity:1;fill-rule:nonzero;stroke:none"
             id="path5538"
             inkscape:connector-curvature="0" /></g><g
           id="g5544"
           transform="translate(92.4541,73.1548)"><path
             d="m 0,0 c -0.085,0.008 -0.171,0.008 -0.258,-0.002 -0.701,-0.077 -1.208,-0.708 -1.132,-1.409 0.077,-0.701 0.708,-1.208 1.409,-1.131 0.702,0.077 1.209,0.708 1.132,1.409 C 1.084,-0.521 0.592,-0.055 0,0"
             style="fill:#68981c;fill-opacity:1;fill-rule:nonzero;stroke:none"
             id="path5542"
             inkscape:connector-curvature="0" /></g><g
           id="g5548"
           transform="translate(11.3579,101.0356)"><path
             d="M 0,0 H 2.023 C 2.551,0 3.047,-0.052 3.51,-0.158 3.973,-0.264 4.376,-0.435 4.72,-0.673 5.063,-0.912 5.334,-1.218 5.533,-1.596 5.731,-1.972 5.83,-2.439 5.83,-2.994 5.83,-3.549 5.715,-4.012 5.483,-4.382 5.252,-4.752 4.944,-5.05 4.561,-5.274 4.177,-5.5 3.738,-5.658 3.242,-5.75 2.747,-5.843 2.241,-5.89 1.725,-5.89 1.381,-5.89 1.054,-5.879 0.744,-5.859 0.433,-5.84 0.185,-5.817 0,-5.79 Z m 57.789,2.281 c 0.436,0 0.86,-0.043 1.269,-0.129 0.41,-0.086 0.747,-0.181 1.012,-0.287 v -7.596 c -0.225,-0.065 -0.536,-0.122 -0.932,-0.168 -0.396,-0.047 -0.813,-0.069 -1.249,-0.069 -1.203,0 -2.132,0.313 -2.787,0.941 -0.654,0.628 -0.982,1.63 -0.982,3.004 0,0.635 0.076,1.217 0.228,1.746 0.152,0.529 0.381,0.981 0.684,1.359 0.303,0.376 0.685,0.67 1.14,0.882 0.456,0.211 0.995,0.317 1.617,0.317 m 35.964,0.02 c 1.059,0 1.848,-0.37 2.37,-1.111 0.523,-0.74 0.784,-1.752 0.784,-3.034 0,-1.282 -0.261,-2.293 -0.784,-3.034 -0.522,-0.74 -1.311,-1.11 -2.37,-1.11 -1.057,0 -1.847,0.37 -2.369,1.11 -0.522,0.741 -0.783,1.752 -0.783,3.034 0,1.282 0.261,2.294 0.783,3.034 0.522,0.741 1.312,1.111 2.369,1.111 m -57.184,0 c 1.057,0 1.847,-0.37 2.37,-1.111 0.522,-0.74 0.782,-1.752 0.782,-3.034 0,-1.282 -0.26,-2.293 -0.782,-3.034 -0.523,-0.74 -1.313,-1.11 -2.37,-1.11 -1.059,0 -1.848,0.37 -2.37,1.11 -0.523,0.741 -0.784,1.752 -0.784,3.034 0,1.282 0.261,2.294 0.784,3.034 0.522,0.741 1.311,1.111 2.37,1.111 m -18.9,0 c 1.058,0 1.848,-0.37 2.37,-1.111 0.522,-0.74 0.783,-1.752 0.783,-3.034 0,-1.282 -0.261,-2.293 -0.783,-3.034 -0.522,-0.74 -1.312,-1.11 -2.37,-1.11 -1.057,0 -1.847,0.37 -2.37,1.11 -0.522,0.741 -0.783,1.752 -0.783,3.034 0,1.282 0.261,2.294 0.783,3.034 0.523,0.741 1.313,1.111 2.37,1.111 M 8.507,3.214 C 8.493,3.147 8.484,3.061 8.478,2.955 8.471,2.849 8.468,2.743 8.468,2.638 8.468,2.532 8.471,2.433 8.478,2.34 8.484,2.248 8.493,2.168 8.507,2.103 H 9.776 V -6.9 c 0.08,-0.013 0.192,-0.024 0.338,-0.03 0.145,-0.007 0.251,-0.01 0.317,-0.01 0.079,0 0.188,0.003 0.327,0.01 0.139,0.006 0.248,0.017 0.327,0.03 V 3.214 Z m 92.425,0.039 c -0.092,0 -0.188,-0.004 -0.287,-0.01 -0.098,-0.007 -0.201,-0.017 -0.308,-0.029 V -6.9 c 0.08,-0.013 0.192,-0.024 0.338,-0.03 0.145,-0.007 0.251,-0.01 0.317,-0.01 0.079,0 0.189,0.003 0.327,0.01 0.139,0.006 0.248,0.017 0.328,0.03 v 5.195 c 0,1.322 0.27,2.267 0.811,2.836 0.543,0.568 1.265,0.852 2.164,0.852 h 0.187 c 0.061,0 0.142,-0.006 0.248,-0.019 0.04,0.198 0.06,0.403 0.06,0.615 0,0.198 -0.02,0.409 -0.06,0.635 -0.092,0.012 -0.174,0.019 -0.248,0.019 h -0.208 c -0.78,0 -1.408,-0.169 -1.883,-0.506 -0.477,-0.337 -0.846,-0.75 -1.111,-1.239 0,0.264 -0.007,0.559 -0.021,0.882 -0.012,0.324 -0.032,0.605 -0.058,0.844 -0.106,0.012 -0.205,0.022 -0.298,0.029 -0.092,0.006 -0.192,0.01 -0.298,0.01 m -36.672,0 c -0.066,0 -0.171,-0.004 -0.317,-0.01 C 63.798,3.236 63.685,3.226 63.606,3.214 v -5.772 c 0,-0.952 0.12,-1.725 0.358,-2.32 0.237,-0.595 0.557,-1.061 0.961,-1.398 0.404,-0.337 0.879,-0.565 1.428,-0.683 0.549,-0.12 1.133,-0.18 1.755,-0.18 0.635,0 1.253,0.05 1.853,0.15 0.603,0.098 1.148,0.214 1.637,0.346 v 9.857 c -0.078,0.012 -0.188,0.022 -0.326,0.029 -0.14,0.006 -0.249,0.01 -0.328,0.01 -0.067,0 -0.172,-0.004 -0.318,-0.01 C 70.482,3.236 70.369,3.226 70.29,3.214 v -8.945 c -0.265,-0.079 -0.569,-0.141 -0.914,-0.188 -0.343,-0.047 -0.732,-0.069 -1.169,-0.069 -0.515,0 -0.979,0.049 -1.388,0.148 -0.41,0.1 -0.757,0.278 -1.041,0.536 -0.285,0.258 -0.499,0.614 -0.644,1.071 -0.146,0.456 -0.218,1.041 -0.218,1.755 V 3.214 C 64.835,3.226 64.727,3.236 64.587,3.243 64.449,3.249 64.34,3.253 64.26,3.253 M 93.753,3.451 C 93,3.451 92.34,3.315 91.771,3.044 91.203,2.773 90.73,2.4 90.353,1.924 89.976,1.448 89.695,0.887 89.51,0.239 c -0.186,-0.648 -0.278,-1.343 -0.278,-2.083 0,-0.74 0.092,-1.435 0.278,-2.082 0.185,-0.648 0.466,-1.21 0.843,-1.685 0.377,-0.477 0.85,-0.85 1.418,-1.121 0.569,-0.271 1.229,-0.407 1.982,-0.407 0.755,0 1.412,0.136 1.974,0.407 0.562,0.271 1.031,0.644 1.408,1.121 0.377,0.475 0.662,1.037 0.854,1.685 0.191,0.647 0.287,1.342 0.287,2.082 0,0.74 -0.096,1.435 -0.287,2.083 -0.192,0.648 -0.477,1.209 -0.854,1.685 -0.377,0.476 -0.846,0.849 -1.408,1.12 -0.562,0.271 -1.219,0.407 -1.974,0.407 m -15.13,0 C 77.816,3.451 77.107,3.315 76.491,3.044 75.876,2.773 75.364,2.4 74.955,1.924 74.544,1.448 74.234,0.889 74.022,0.248 73.811,-0.393 73.705,-1.09 73.705,-1.844 c 0,-1.719 0.429,-3.031 1.289,-3.936 0.859,-0.906 2.115,-1.359 3.768,-1.359 0.516,0 0.985,0.04 1.407,0.119 0.424,0.08 0.801,0.179 1.131,0.298 -0.026,0.145 -0.07,0.33 -0.128,0.555 -0.06,0.224 -0.123,0.404 -0.189,0.536 -0.291,-0.106 -0.618,-0.192 -0.982,-0.259 -0.364,-0.065 -0.743,-0.098 -1.139,-0.098 -1.164,0 -2.086,0.333 -2.767,1.001 -0.682,0.668 -1.022,1.716 -1.022,3.143 0,0.608 0.073,1.163 0.218,1.666 0.146,0.502 0.367,0.939 0.665,1.309 0.297,0.37 0.667,0.658 1.11,0.863 0.443,0.205 0.962,0.307 1.557,0.307 0.461,0 0.895,-0.033 1.299,-0.099 0.403,-0.066 0.737,-0.145 1.001,-0.238 0.054,0.132 0.103,0.31 0.15,0.535 0.045,0.225 0.069,0.423 0.069,0.595 -0.266,0.092 -0.625,0.175 -1.081,0.248 -0.456,0.072 -0.936,0.109 -1.438,0.109 m -31.126,0 C 47.06,3.451 46.657,3.388 46.288,3.263 45.917,3.137 45.59,2.975 45.306,2.777 45.022,2.579 44.773,2.357 44.562,2.113 44.35,1.868 44.179,1.626 44.047,1.388 c 0,0.265 -0.007,0.576 -0.02,0.933 -0.014,0.357 -0.034,0.654 -0.06,0.893 -0.106,0.012 -0.205,0.022 -0.297,0.029 -0.092,0.006 -0.192,0.01 -0.298,0.01 -0.093,0 -0.188,-0.004 -0.287,-0.01 C 42.986,3.236 42.883,3.226 42.777,3.214 V -6.9 c 0.08,-0.013 0.192,-0.024 0.337,-0.03 0.146,-0.007 0.252,-0.01 0.318,-0.01 0.079,0 0.188,0.003 0.327,0.01 0.139,0.006 0.248,0.017 0.327,0.03 v 4.997 c 0,0.661 0.086,1.249 0.258,1.765 0.172,0.516 0.406,0.948 0.704,1.299 0.297,0.35 0.651,0.618 1.061,0.803 0.41,0.185 0.846,0.278 1.309,0.278 0.7,0 1.226,-0.245 1.576,-0.734 0.351,-0.49 0.526,-1.296 0.526,-2.42 V -6.9 c 0.079,-0.013 0.191,-0.024 0.337,-0.03 0.146,-0.007 0.251,-0.01 0.317,-0.01 0.08,0 0.189,0.003 0.328,0.01 0.138,0.006 0.247,0.017 0.327,0.03 v 6.385 c 0,1.256 -0.264,2.231 -0.794,2.925 -0.528,0.694 -1.374,1.041 -2.538,1.041 m -10.928,0 C 35.815,3.451 35.153,3.315 34.585,3.044 34.016,2.773 33.544,2.4 33.167,1.924 32.79,1.448 32.51,0.887 32.324,0.239 c -0.185,-0.648 -0.277,-1.343 -0.277,-2.083 0,-0.74 0.092,-1.435 0.277,-2.082 0.186,-0.648 0.466,-1.21 0.843,-1.685 0.377,-0.477 0.849,-0.85 1.418,-1.121 0.568,-0.271 1.23,-0.407 1.984,-0.407 0.753,0 1.41,0.136 1.973,0.407 0.562,0.271 1.031,0.644 1.407,1.121 0.377,0.475 0.661,1.037 0.853,1.685 0.192,0.647 0.288,1.342 0.288,2.082 0,0.74 -0.096,1.435 -0.288,2.083 -0.192,0.648 -0.476,1.209 -0.853,1.685 -0.376,0.476 -0.845,0.849 -1.407,1.12 -0.563,0.271 -1.22,0.407 -1.973,0.407 m -7.973,0 C 27.789,3.451 27.079,3.315 26.464,3.044 25.849,2.773 25.337,2.4 24.927,1.924 24.518,1.448 24.207,0.889 23.996,0.248 23.784,-0.393 23.678,-1.09 23.678,-1.844 c 0,-1.719 0.429,-3.031 1.288,-3.936 0.86,-0.906 2.116,-1.359 3.769,-1.359 0.516,0 0.985,0.04 1.408,0.119 0.423,0.08 0.799,0.179 1.13,0.298 -0.026,0.145 -0.069,0.33 -0.129,0.555 -0.059,0.224 -0.122,0.404 -0.188,0.536 -0.291,-0.106 -0.618,-0.192 -0.982,-0.259 -0.363,-0.065 -0.743,-0.098 -1.14,-0.098 -1.163,0 -2.086,0.333 -2.767,1.001 -0.681,0.668 -1.021,1.716 -1.021,3.143 0,0.608 0.073,1.163 0.219,1.666 0.145,0.502 0.366,0.939 0.664,1.309 0.297,0.37 0.667,0.658 1.11,0.863 0.443,0.205 0.962,0.307 1.557,0.307 0.463,0 0.896,-0.033 1.299,-0.099 0.403,-0.066 0.737,-0.145 1.001,-0.238 0.053,0.132 0.103,0.31 0.149,0.535 0.047,0.225 0.07,0.423 0.07,0.595 -0.265,0.092 -0.625,0.175 -1.081,0.248 -0.456,0.072 -0.936,0.109 -1.438,0.109 m -10.927,0 C 16.916,3.451 16.255,3.315 15.686,3.044 15.117,2.773 14.645,2.4 14.268,1.924 13.892,1.448 13.61,0.887 13.425,0.239 13.24,-0.409 13.148,-1.104 13.148,-1.844 c 0,-0.74 0.092,-1.435 0.277,-2.082 0.185,-0.648 0.467,-1.21 0.843,-1.685 0.377,-0.477 0.849,-0.85 1.418,-1.121 0.569,-0.271 1.23,-0.407 1.983,-0.407 0.754,0 1.411,0.136 1.973,0.407 0.562,0.271 1.032,0.644 1.409,1.121 0.376,0.475 0.66,1.037 0.852,1.685 0.192,0.647 0.288,1.342 0.288,2.082 0,0.74 -0.096,1.435 -0.288,2.083 C 21.711,0.887 21.427,1.448 21.051,1.924 20.674,2.4 20.204,2.773 19.642,3.044 19.08,3.315 18.423,3.451 17.669,3.451 M 85.623,6.326 84.394,5.117 V 3.214 H 82.669 C 82.656,3.147 82.646,3.067 82.639,2.975 82.632,2.882 82.628,2.784 82.628,2.678 c 0,-0.106 0.004,-0.212 0.011,-0.318 0.007,-0.106 0.017,-0.192 0.03,-0.257 h 1.725 v -6.644 c 0,-0.912 0.233,-1.57 0.704,-1.973 0.468,-0.403 1.081,-0.604 1.834,-0.604 0.635,0 1.19,0.072 1.666,0.218 -0.04,0.396 -0.105,0.766 -0.198,1.11 -0.344,-0.119 -0.747,-0.178 -1.21,-0.178 -0.185,0 -0.367,0.016 -0.545,0.049 -0.179,0.033 -0.336,0.103 -0.476,0.209 -0.138,0.106 -0.252,0.254 -0.338,0.446 -0.086,0.191 -0.128,0.452 -0.128,0.783 v 6.584 h 2.736 c 0.014,0.065 0.023,0.151 0.03,0.257 0.007,0.106 0.01,0.212 0.01,0.318 0,0.106 -0.003,0.204 -0.01,0.297 -0.007,0.092 -0.017,0.172 -0.03,0.239 H 85.703 V 6.326 Z M 1.725,6.386 c 1.124,0 1.947,-0.242 2.47,-0.724 C 4.717,5.179 4.977,4.582 4.977,3.868 4.977,3.101 4.73,2.479 4.234,2.003 3.738,1.527 2.955,1.289 1.884,1.289 H 0 v 4.978 c 0.185,0.026 0.433,0.053 0.744,0.079 0.31,0.027 0.637,0.04 0.981,0.04 m 8.27,1.011 C 9.876,7.397 9.73,7.394 9.559,7.387 9.386,7.381 9.241,7.371 9.122,7.358 9.109,7.251 9.099,7.12 9.092,6.961 9.086,6.802 9.082,6.67 9.082,6.565 9.082,6.445 9.086,6.3 9.092,6.129 9.099,5.957 9.109,5.811 9.122,5.692 9.241,5.678 9.386,5.669 9.559,5.662 9.73,5.655 9.876,5.652 9.995,5.652 c 0.106,0 0.237,0.003 0.396,0.01 0.159,0.007 0.291,0.016 0.397,0.03 0.013,0.119 0.022,0.265 0.03,0.437 0.006,0.171 0.009,0.316 0.009,0.436 0,0.105 -0.003,0.237 -0.009,0.396 -0.008,0.159 -0.017,0.29 -0.03,0.397 -0.106,0.013 -0.238,0.023 -0.397,0.029 -0.159,0.007 -0.29,0.01 -0.396,0.01 M 1.586,7.575 C 1.361,7.575 1.107,7.569 0.823,7.556 0.538,7.543 0.258,7.523 -0.02,7.496 -0.298,7.47 -0.559,7.443 -0.803,7.417 -1.048,7.39 -1.236,7.371 -1.369,7.358 V -6.9 c 0.185,-0.027 0.407,-0.057 0.665,-0.089 0.258,-0.033 0.522,-0.061 0.794,-0.08 0.27,-0.02 0.538,-0.036 0.802,-0.049 0.265,-0.013 0.503,-0.021 0.714,-0.021 0.82,0 1.577,0.083 2.271,0.249 0.694,0.165 1.295,0.419 1.804,0.763 0.509,0.344 0.906,0.773 1.19,1.289 0.284,0.515 0.427,1.13 0.427,1.844 0,0.621 -0.09,1.154 -0.268,1.597 -0.179,0.442 -0.416,0.813 -0.714,1.11 C 6.019,0.011 5.678,0.242 5.295,0.407 4.911,0.572 4.515,0.681 4.105,0.734 4.409,0.827 4.703,0.965 4.987,1.151 5.272,1.336 5.519,1.564 5.731,1.835 5.942,2.106 6.111,2.41 6.236,2.747 6.362,3.084 6.425,3.458 6.425,3.868 6.425,5.137 6.009,6.072 5.176,6.674 4.343,7.275 3.146,7.575 1.586,7.575 m 59.138,0.14 c -0.066,0 -0.172,-0.004 -0.318,-0.01 C 60.261,7.698 60.149,7.688 60.07,7.675 V 3.094 c -0.265,0.092 -0.612,0.175 -1.041,0.248 -0.43,0.072 -0.863,0.109 -1.3,0.109 -0.74,0 -1.417,-0.126 -2.032,-0.377 -0.615,-0.251 -1.14,-0.611 -1.577,-1.08 -0.436,-0.47 -0.773,-1.045 -1.011,-1.726 -0.238,-0.681 -0.358,-1.457 -0.358,-2.33 0,-0.952 0.136,-1.752 0.407,-2.4 0.271,-0.647 0.637,-1.169 1.101,-1.566 0.462,-0.397 1.011,-0.681 1.646,-0.853 0.635,-0.171 1.315,-0.258 2.043,-0.258 0.661,0 1.296,0.047 1.904,0.139 0.607,0.093 1.116,0.205 1.525,0.337 V 7.675 c -0.078,0.013 -0.187,0.023 -0.326,0.03 -0.139,0.006 -0.248,0.01 -0.327,0.01"
             style="fill:#393536;fill-opacity:1;fill-rule:nonzero;stroke:none"
             id="path5546"
             inkscape:connector-curvature="0" /></g></g></clipPath><clipPath
       clipPathUnits="userSpaceOnUse"
       id="clipPath26-39-1"><path
         d="M 0,0 H 124.56 V 146 H 0 Z"
         id="path24-08-1"
         inkscape:connector-curvature="0" /></clipPath><clipPath
       clipPathUnits="userSpaceOnUse"
       id="clipPath6029"><g
         id="g6135"
         transform="translate(210.22835,123.24116)"><g
           transform="translate(-478.91555,-140.81691)"
           id="g6033"><path
             inkscape:connector-curvature="0"
             id="path6031"
             style="fill:#afd3de;fill-opacity:1;fill-rule:nonzero;stroke:none"
             d="m 0,0 v -71.745 l 62.28,-35.873 62.28,35.873 V 0 L 62.28,35.872 Z M 4.844,-68.945 V -2.8 L 62.28,30.282 119.716,-2.8 V -68.945 L 62.28,-102.028 Z" /></g><g
           id="g6133"
           clip-path="url(#clipPath26-39-1)"
           transform="translate(-478.60977,-251.96522)"><g
             id="g6131"><g
               transform="translate(91.2842,80.4233)"
               id="g6037"><path
                 inkscape:connector-curvature="0"
                 id="path6035"
                 style="fill:#3792ad;fill-opacity:1;fill-rule:nonzero;stroke:none"
                 d="m 0,0 c -0.464,0.017 -0.914,-0.242 -1.122,-0.688 -0.277,-0.598 -0.017,-1.306 0.581,-1.583 0.596,-0.275 1.304,-0.016 1.581,0.58 0.276,0.597 0.016,1.303 -0.581,1.58 C 0.31,-0.041 0.155,-0.004 0,0" /></g><g
               transform="translate(51.7393,80.7539)"
               id="g6041"><path
                 inkscape:connector-curvature="0"
                 id="path6039"
                 style="fill:#3792ad;fill-opacity:1;fill-rule:nonzero;stroke:none"
                 d="m 0,0 c -0.101,0.009 -0.205,0.009 -0.311,-0.002 -0.841,-0.092 -1.449,-0.849 -1.357,-1.69 0.092,-0.84 0.849,-1.449 1.691,-1.357 0.841,0.093 1.45,0.85 1.357,1.69 C 1.3,-0.622 0.71,-0.066 0,0" /></g><g
               transform="translate(55.7095,83.6299)"
               id="g6045"><path
                 inkscape:connector-curvature="0"
                 id="path6043"
                 style="fill:#3792ad;fill-opacity:1;fill-rule:nonzero;stroke:none"
                 d="m 0,0 c -0.114,0.011 -0.23,0.01 -0.348,-0.003 -0.947,-0.104 -1.63,-0.955 -1.527,-1.901 0.103,-0.946 0.955,-1.631 1.902,-1.527 0.946,0.104 1.629,0.956 1.526,1.902 C 1.463,-0.701 0.798,-0.074 0,0" /></g><g
               transform="translate(94.0254,85.4243)"
               id="g6049"><path
                 inkscape:connector-curvature="0"
                 id="path6047"
                 style="fill:#3792ad;fill-opacity:1;fill-rule:nonzero;stroke:none"
                 d="m 0,0 c -0.119,0.011 -0.24,0.01 -0.363,-0.003 -0.987,-0.108 -1.7,-0.996 -1.592,-1.982 0.107,-0.986 0.995,-1.698 1.981,-1.59 0.987,0.108 1.699,0.995 1.591,1.981 C 1.522,-0.731 0.832,-0.078 0,0" /></g><g
               transform="translate(49.6733,76.9722)"
               id="g6053"><path
                 inkscape:connector-curvature="0"
                 id="path6051"
                 style="fill:#3792ad;fill-opacity:1;fill-rule:nonzero;stroke:none"
                 d="m 0,0 c -0.067,0.006 -0.135,0.006 -0.205,-0.002 -0.557,-0.061 -0.96,-0.562 -0.899,-1.118 0.061,-0.558 0.562,-0.96 1.12,-0.899 0.557,0.061 0.959,0.563 0.897,1.12 C 0.859,-0.411 0.47,-0.043 0,0" /></g><g
               transform="translate(60.4907,81.769)"
               id="g6057"><path
                 inkscape:connector-curvature="0"
                 id="path6055"
                 style="fill:#3792ad;fill-opacity:1;fill-rule:nonzero;stroke:none"
                 d="m 0,0 c -0.131,0.012 -0.264,0.011 -0.399,-0.004 -1.083,-0.118 -1.868,-1.093 -1.749,-2.177 0.119,-1.082 1.094,-1.864 2.178,-1.747 1.084,0.121 1.866,1.094 1.747,2.178 C 1.673,-0.801 0.913,-0.084 0,0" /></g><g
               transform="translate(88.8027,76.5762)"
               id="g6061"><path
                 inkscape:connector-curvature="0"
                 id="path6059"
                 style="fill:#68981c;fill-opacity:1;fill-rule:nonzero;stroke:none"
                 d="m 0,0 c -0.147,0.014 -0.299,0.013 -0.452,-0.004 -1.224,-0.134 -2.108,-1.236 -1.974,-2.46 0.134,-1.225 1.236,-2.108 2.46,-1.975 1.225,0.134 2.11,1.236 1.975,2.46 C 1.892,-0.907 1.033,-0.096 0,0" /></g><g
               transform="translate(85.3877,72.4468)"
               id="g6065"><path
                 inkscape:connector-curvature="0"
                 id="path6063"
                 style="fill:#3792ad;fill-opacity:1;fill-rule:nonzero;stroke:none"
                 d="m 0,0 c -0.052,0.005 -0.103,0.004 -0.155,-0.002 -0.42,-0.046 -0.725,-0.424 -0.679,-0.844 0.047,-0.42 0.425,-0.725 0.845,-0.679 0.422,0.046 0.724,0.427 0.678,0.846 C 0.649,-0.311 0.354,-0.033 0,0" /></g><g
               transform="translate(48.2432,72.958)"
               id="g6069"><path
                 inkscape:connector-curvature="0"
                 id="path6067"
                 style="fill:#3792ad;fill-opacity:1;fill-rule:nonzero;stroke:none"
                 d="m 0,0 c 0,0 0.225,-37.068 0.016,-36.951 -1.071,0.599 -1.991,0.66 -2.908,0.62 -3.775,-0.15 -8.381,-3.541 -8.511,-7.92 -0.045,-1.82 0.176,-3.542 1.578,-4.575 0.877,-0.64 1.975,-0.687 3.071,-0.687 3.641,0 8.425,3.638 8.512,7.917 v 40.195 z" /></g><g
               transform="translate(82.8301,70.6865)"
               id="g6073"><path
                 inkscape:connector-curvature="0"
                 id="path6071"
                 style="fill:#3792ad;fill-opacity:1;fill-rule:nonzero;stroke:none"
                 d="m 0,0 c -0.067,0.006 -0.137,0.005 -0.207,-0.002 -0.561,-0.062 -0.967,-0.567 -0.906,-1.127 0.062,-0.56 0.567,-0.965 1.127,-0.904 0.562,0.062 0.965,0.565 0.905,1.126 C 0.865,-0.415 0.473,-0.045 0,0" /></g><g
               transform="translate(69.332,74.3701)"
               id="g6077"><path
                 inkscape:connector-curvature="0"
                 id="path6075"
                 style="fill:#3792ad;fill-opacity:1;fill-rule:nonzero;stroke:none"
                 d="m 0,0 c -0.127,0.011 -0.257,0.011 -0.389,-0.003 -1.05,-0.116 -1.81,-1.062 -1.695,-2.114 0.114,-1.051 1.061,-1.812 2.113,-1.696 C 1.08,-3.697 1.84,-2.751 1.725,-1.7 1.624,-0.78 0.887,-0.083 0,0" /></g><g
               transform="translate(79.542,69.2207)"
               id="g6081"><path
                 inkscape:connector-curvature="0"
                 id="path6079"
                 style="fill:#3792ad;fill-opacity:1;fill-rule:nonzero;stroke:none"
                 d="M 0,0 C -0.085,0.008 -0.171,0.007 -0.259,-0.002 -0.96,-0.078 -1.466,-0.709 -1.39,-1.41 c 0.078,-0.702 0.707,-1.208 1.41,-1.131 0.701,0.077 1.207,0.707 1.129,1.409 C 1.083,-0.52 0.592,-0.056 0,0" /></g><g
               transform="translate(74.4131,71.1162)"
               id="g6085"><path
                 inkscape:connector-curvature="0"
                 id="path6083"
                 style="fill:#3792ad;fill-opacity:1;fill-rule:nonzero;stroke:none"
                 d="M 0,0 C -0.646,0.021 -1.274,-0.337 -1.563,-0.961 -1.95,-1.792 -1.588,-2.78 -0.757,-3.166 0.076,-3.553 1.063,-3.19 1.448,-2.358 1.834,-1.526 1.472,-0.539 0.641,-0.153 0.433,-0.058 0.216,-0.007 0,0" /></g><g
               transform="translate(79.3105,83.3086)"
               id="g6089"><path
                 inkscape:connector-curvature="0"
                 id="path6087"
                 style="fill:#68981c;fill-opacity:1;fill-rule:nonzero;stroke:none"
                 d="m 0,0 c -0.114,0.011 -0.229,0.01 -0.348,-0.003 -0.943,-0.103 -1.624,-0.952 -1.521,-1.894 0.103,-0.942 0.952,-1.623 1.895,-1.52 0.943,0.102 1.623,0.951 1.52,1.893 C 1.456,-0.699 0.795,-0.074 0,0" /></g><g
               transform="translate(74.3867,85.4897)"
               id="g6093"><path
                 inkscape:connector-curvature="0"
                 id="path6091"
                 style="fill:#68981c;fill-opacity:1;fill-rule:nonzero;stroke:none"
                 d="m 0,0 c -0.319,-0.019 -0.636,-0.13 -0.91,-0.34 -0.728,-0.555 -0.868,-1.597 -0.311,-2.326 0.556,-0.728 1.599,-0.867 2.326,-0.311 0.729,0.556 0.868,1.598 0.312,2.328 C 1.069,-0.194 0.532,0.031 0,0" /></g><g
               transform="translate(83.5244,80.1123)"
               id="g6097"><path
                 inkscape:connector-curvature="0"
                 id="path6095"
                 style="fill:#68981c;fill-opacity:1;fill-rule:nonzero;stroke:none"
                 d="m 0,0 c -0.26,0.017 -0.53,-0.014 -0.797,-0.1 l -0.102,-0.036 c -1.085,-0.413 -1.659,-1.613 -1.276,-2.673 0.366,-1.026 1.488,-1.557 2.552,-1.213 l 0.105,0.037 C 1.567,-3.571 2.14,-2.372 1.759,-1.312 1.482,-0.545 0.782,-0.053 0,0" /></g><g
               transform="translate(70.8193,83.4927)"
               id="g6101"><path
                 inkscape:connector-curvature="0"
                 id="path6099"
                 style="fill:#68981c;fill-opacity:1;fill-rule:nonzero;stroke:none"
                 d="m 0,0 c -0.085,0.008 -0.172,0.007 -0.261,-0.002 -0.699,-0.077 -1.205,-0.708 -1.13,-1.409 0.078,-0.701 0.708,-1.207 1.41,-1.13 0.702,0.076 1.207,0.706 1.129,1.408 C 1.083,-0.52 0.592,-0.055 0,0" /></g><g
               transform="translate(64.9844,78.5625)"
               id="g6105"><path
                 inkscape:connector-curvature="0"
                 id="path6103"
                 style="fill:#3792ad;fill-opacity:1;fill-rule:nonzero;stroke:none"
                 d="m 0,0 c -0.161,0.015 -0.325,0.014 -0.491,-0.004 -1.332,-0.146 -2.294,-1.345 -2.149,-2.677 0.146,-1.332 1.345,-2.294 2.677,-2.148 1.332,0.146 2.294,1.343 2.148,2.675 C 2.058,-0.988 1.124,-0.105 0,0" /></g><g
               transform="translate(68.207,80.4951)"
               id="g6109"><path
                 inkscape:connector-curvature="0"
                 id="path6107"
                 style="fill:#68981c;fill-opacity:1;fill-rule:nonzero;stroke:none"
                 d="m 0,0 c -0.059,0.005 -0.12,0.004 -0.182,-0.002 -0.489,-0.054 -0.843,-0.495 -0.789,-0.986 0.053,-0.491 0.494,-0.845 0.985,-0.791 0.491,0.053 0.846,0.495 0.792,0.985 C 0.758,-0.364 0.414,-0.039 0,0" /></g><g
               transform="translate(54.8647,72.5947)"
               id="g6113"><path
                 inkscape:connector-curvature="0"
                 id="path6111"
                 style="fill:#68981c;fill-opacity:1;fill-rule:nonzero;stroke:none"
                 d="m 0,0 c -0.135,0.012 -0.273,0.011 -0.413,-0.005 -1.121,-0.122 -1.932,-1.131 -1.809,-2.253 0.122,-1.121 1.131,-1.93 2.253,-1.807 1.122,0.122 1.931,1.129 1.809,2.253 C 1.732,-0.832 0.947,-0.088 0,0" /></g><g
               transform="translate(95.291,70.5098)"
               id="g6117"><path
                 inkscape:connector-curvature="0"
                 id="path6115"
                 style="fill:#68981c;fill-opacity:1;fill-rule:nonzero;stroke:none"
                 d="m 0,0 c -0.06,0.005 -0.119,0.005 -0.18,-0.001 -0.491,-0.054 -0.846,-0.496 -0.793,-0.987 0.055,-0.49 0.494,-0.845 0.985,-0.792 0.492,0.055 0.847,0.496 0.793,0.986 C 0.759,-0.364 0.414,-0.039 0,0" /></g><g
               transform="translate(59.9067,74.0483)"
               id="g6121"><path
                 inkscape:connector-curvature="0"
                 id="path6119"
                 style="fill:#68981c;fill-opacity:1;fill-rule:nonzero;stroke:none"
                 d="m 0,0 c -0.098,0.01 -0.198,0.008 -0.3,-0.003 -0.812,-0.089 -1.4,-0.82 -1.31,-1.632 0.088,-0.813 0.819,-1.402 1.632,-1.312 0.814,0.089 1.4,0.821 1.311,1.634 C 1.256,-0.603 0.686,-0.064 0,0" /></g><g
               transform="translate(92.4541,73.1548)"
               id="g6125"><path
                 inkscape:connector-curvature="0"
                 id="path6123"
                 style="fill:#68981c;fill-opacity:1;fill-rule:nonzero;stroke:none"
                 d="m 0,0 c -0.085,0.008 -0.171,0.008 -0.258,-0.002 -0.701,-0.077 -1.208,-0.708 -1.132,-1.409 0.077,-0.701 0.708,-1.208 1.409,-1.131 0.702,0.077 1.209,0.708 1.132,1.409 C 1.084,-0.521 0.592,-0.055 0,0" /></g><g
               transform="translate(11.3579,101.0356)"
               id="g6129"><path
                 inkscape:connector-curvature="0"
                 id="path6127"
                 style="fill:#393536;fill-opacity:1;fill-rule:nonzero;stroke:none"
                 d="M 0,0 H 2.023 C 2.551,0 3.047,-0.052 3.51,-0.158 3.973,-0.264 4.376,-0.435 4.72,-0.673 5.063,-0.912 5.334,-1.218 5.533,-1.596 5.731,-1.972 5.83,-2.439 5.83,-2.994 5.83,-3.549 5.715,-4.012 5.483,-4.382 5.252,-4.752 4.944,-5.05 4.561,-5.274 4.177,-5.5 3.738,-5.658 3.242,-5.75 2.747,-5.843 2.241,-5.89 1.725,-5.89 1.381,-5.89 1.054,-5.879 0.744,-5.859 0.433,-5.84 0.185,-5.817 0,-5.79 Z m 57.789,2.281 c 0.436,0 0.86,-0.043 1.269,-0.129 0.41,-0.086 0.747,-0.181 1.012,-0.287 v -7.596 c -0.225,-0.065 -0.536,-0.122 -0.932,-0.168 -0.396,-0.047 -0.813,-0.069 -1.249,-0.069 -1.203,0 -2.132,0.313 -2.787,0.941 -0.654,0.628 -0.982,1.63 -0.982,3.004 0,0.635 0.076,1.217 0.228,1.746 0.152,0.529 0.381,0.981 0.684,1.359 0.303,0.376 0.685,0.67 1.14,0.882 0.456,0.211 0.995,0.317 1.617,0.317 m 35.964,0.02 c 1.059,0 1.848,-0.37 2.37,-1.111 0.523,-0.74 0.784,-1.752 0.784,-3.034 0,-1.282 -0.261,-2.293 -0.784,-3.034 -0.522,-0.74 -1.311,-1.11 -2.37,-1.11 -1.057,0 -1.847,0.37 -2.369,1.11 -0.522,0.741 -0.783,1.752 -0.783,3.034 0,1.282 0.261,2.294 0.783,3.034 0.522,0.741 1.312,1.111 2.369,1.111 m -57.184,0 c 1.057,0 1.847,-0.37 2.37,-1.111 0.522,-0.74 0.782,-1.752 0.782,-3.034 0,-1.282 -0.26,-2.293 -0.782,-3.034 -0.523,-0.74 -1.313,-1.11 -2.37,-1.11 -1.059,0 -1.848,0.37 -2.37,1.11 -0.523,0.741 -0.784,1.752 -0.784,3.034 0,1.282 0.261,2.294 0.784,3.034 0.522,0.741 1.311,1.111 2.37,1.111 m -18.9,0 c 1.058,0 1.848,-0.37 2.37,-1.111 0.522,-0.74 0.783,-1.752 0.783,-3.034 0,-1.282 -0.261,-2.293 -0.783,-3.034 -0.522,-0.74 -1.312,-1.11 -2.37,-1.11 -1.057,0 -1.847,0.37 -2.37,1.11 -0.522,0.741 -0.783,1.752 -0.783,3.034 0,1.282 0.261,2.294 0.783,3.034 0.523,0.741 1.313,1.111 2.37,1.111 M 8.507,3.214 C 8.493,3.147 8.484,3.061 8.478,2.955 8.471,2.849 8.468,2.743 8.468,2.638 8.468,2.532 8.471,2.433 8.478,2.34 8.484,2.248 8.493,2.168 8.507,2.103 H 9.776 V -6.9 c 0.08,-0.013 0.192,-0.024 0.338,-0.03 0.145,-0.007 0.251,-0.01 0.317,-0.01 0.079,0 0.188,0.003 0.327,0.01 0.139,0.006 0.248,0.017 0.327,0.03 V 3.214 Z m 92.425,0.039 c -0.092,0 -0.188,-0.004 -0.287,-0.01 -0.098,-0.007 -0.201,-0.017 -0.308,-0.029 V -6.9 c 0.08,-0.013 0.192,-0.024 0.338,-0.03 0.145,-0.007 0.251,-0.01 0.317,-0.01 0.079,0 0.189,0.003 0.327,0.01 0.139,0.006 0.248,0.017 0.328,0.03 v 5.195 c 0,1.322 0.27,2.267 0.811,2.836 0.543,0.568 1.265,0.852 2.164,0.852 h 0.187 c 0.061,0 0.142,-0.006 0.248,-0.019 0.04,0.198 0.06,0.403 0.06,0.615 0,0.198 -0.02,0.409 -0.06,0.635 -0.092,0.012 -0.174,0.019 -0.248,0.019 h -0.208 c -0.78,0 -1.408,-0.169 -1.883,-0.506 -0.477,-0.337 -0.846,-0.75 -1.111,-1.239 0,0.264 -0.007,0.559 -0.021,0.882 -0.012,0.324 -0.032,0.605 -0.058,0.844 -0.106,0.012 -0.205,0.022 -0.298,0.029 -0.092,0.006 -0.192,0.01 -0.298,0.01 m -36.672,0 c -0.066,0 -0.171,-0.004 -0.317,-0.01 C 63.798,3.236 63.685,3.226 63.606,3.214 v -5.772 c 0,-0.952 0.12,-1.725 0.358,-2.32 0.237,-0.595 0.557,-1.061 0.961,-1.398 0.404,-0.337 0.879,-0.565 1.428,-0.683 0.549,-0.12 1.133,-0.18 1.755,-0.18 0.635,0 1.253,0.05 1.853,0.15 0.603,0.098 1.148,0.214 1.637,0.346 v 9.857 c -0.078,0.012 -0.188,0.022 -0.326,0.029 -0.14,0.006 -0.249,0.01 -0.328,0.01 -0.067,0 -0.172,-0.004 -0.318,-0.01 C 70.482,3.236 70.369,3.226 70.29,3.214 v -8.945 c -0.265,-0.079 -0.569,-0.141 -0.914,-0.188 -0.343,-0.047 -0.732,-0.069 -1.169,-0.069 -0.515,0 -0.979,0.049 -1.388,0.148 -0.41,0.1 -0.757,0.278 -1.041,0.536 -0.285,0.258 -0.499,0.614 -0.644,1.071 -0.146,0.456 -0.218,1.041 -0.218,1.755 V 3.214 C 64.835,3.226 64.727,3.236 64.587,3.243 64.449,3.249 64.34,3.253 64.26,3.253 M 93.753,3.451 C 93,3.451 92.34,3.315 91.771,3.044 91.203,2.773 90.73,2.4 90.353,1.924 89.976,1.448 89.695,0.887 89.51,0.239 c -0.186,-0.648 -0.278,-1.343 -0.278,-2.083 0,-0.74 0.092,-1.435 0.278,-2.082 0.185,-0.648 0.466,-1.21 0.843,-1.685 0.377,-0.477 0.85,-0.85 1.418,-1.121 0.569,-0.271 1.229,-0.407 1.982,-0.407 0.755,0 1.412,0.136 1.974,0.407 0.562,0.271 1.031,0.644 1.408,1.121 0.377,0.475 0.662,1.037 0.854,1.685 0.191,0.647 0.287,1.342 0.287,2.082 0,0.74 -0.096,1.435 -0.287,2.083 -0.192,0.648 -0.477,1.209 -0.854,1.685 -0.377,0.476 -0.846,0.849 -1.408,1.12 -0.562,0.271 -1.219,0.407 -1.974,0.407 m -15.13,0 C 77.816,3.451 77.107,3.315 76.491,3.044 75.876,2.773 75.364,2.4 74.955,1.924 74.544,1.448 74.234,0.889 74.022,0.248 73.811,-0.393 73.705,-1.09 73.705,-1.844 c 0,-1.719 0.429,-3.031 1.289,-3.936 0.859,-0.906 2.115,-1.359 3.768,-1.359 0.516,0 0.985,0.04 1.407,0.119 0.424,0.08 0.801,0.179 1.131,0.298 -0.026,0.145 -0.07,0.33 -0.128,0.555 -0.06,0.224 -0.123,0.404 -0.189,0.536 -0.291,-0.106 -0.618,-0.192 -0.982,-0.259 -0.364,-0.065 -0.743,-0.098 -1.139,-0.098 -1.164,0 -2.086,0.333 -2.767,1.001 -0.682,0.668 -1.022,1.716 -1.022,3.143 0,0.608 0.073,1.163 0.218,1.666 0.146,0.502 0.367,0.939 0.665,1.309 0.297,0.37 0.667,0.658 1.11,0.863 0.443,0.205 0.962,0.307 1.557,0.307 0.461,0 0.895,-0.033 1.299,-0.099 0.403,-0.066 0.737,-0.145 1.001,-0.238 0.054,0.132 0.103,0.31 0.15,0.535 0.045,0.225 0.069,0.423 0.069,0.595 -0.266,0.092 -0.625,0.175 -1.081,0.248 -0.456,0.072 -0.936,0.109 -1.438,0.109 m -31.126,0 C 47.06,3.451 46.657,3.388 46.288,3.263 45.917,3.137 45.59,2.975 45.306,2.777 45.022,2.579 44.773,2.357 44.562,2.113 44.35,1.868 44.179,1.626 44.047,1.388 c 0,0.265 -0.007,0.576 -0.02,0.933 -0.014,0.357 -0.034,0.654 -0.06,0.893 -0.106,0.012 -0.205,0.022 -0.297,0.029 -0.092,0.006 -0.192,0.01 -0.298,0.01 -0.093,0 -0.188,-0.004 -0.287,-0.01 C 42.986,3.236 42.883,3.226 42.777,3.214 V -6.9 c 0.08,-0.013 0.192,-0.024 0.337,-0.03 0.146,-0.007 0.252,-0.01 0.318,-0.01 0.079,0 0.188,0.003 0.327,0.01 0.139,0.006 0.248,0.017 0.327,0.03 v 4.997 c 0,0.661 0.086,1.249 0.258,1.765 0.172,0.516 0.406,0.948 0.704,1.299 0.297,0.35 0.651,0.618 1.061,0.803 0.41,0.185 0.846,0.278 1.309,0.278 0.7,0 1.226,-0.245 1.576,-0.734 0.351,-0.49 0.526,-1.296 0.526,-2.42 V -6.9 c 0.079,-0.013 0.191,-0.024 0.337,-0.03 0.146,-0.007 0.251,-0.01 0.317,-0.01 0.08,0 0.189,0.003 0.328,0.01 0.138,0.006 0.247,0.017 0.327,0.03 v 6.385 c 0,1.256 -0.264,2.231 -0.794,2.925 -0.528,0.694 -1.374,1.041 -2.538,1.041 m -10.928,0 C 35.815,3.451 35.153,3.315 34.585,3.044 34.016,2.773 33.544,2.4 33.167,1.924 32.79,1.448 32.51,0.887 32.324,0.239 c -0.185,-0.648 -0.277,-1.343 -0.277,-2.083 0,-0.74 0.092,-1.435 0.277,-2.082 0.186,-0.648 0.466,-1.21 0.843,-1.685 0.377,-0.477 0.849,-0.85 1.418,-1.121 0.568,-0.271 1.23,-0.407 1.984,-0.407 0.753,0 1.41,0.136 1.973,0.407 0.562,0.271 1.031,0.644 1.407,1.121 0.377,0.475 0.661,1.037 0.853,1.685 0.192,0.647 0.288,1.342 0.288,2.082 0,0.74 -0.096,1.435 -0.288,2.083 -0.192,0.648 -0.476,1.209 -0.853,1.685 -0.376,0.476 -0.845,0.849 -1.407,1.12 -0.563,0.271 -1.22,0.407 -1.973,0.407 m -7.973,0 C 27.789,3.451 27.079,3.315 26.464,3.044 25.849,2.773 25.337,2.4 24.927,1.924 24.518,1.448 24.207,0.889 23.996,0.248 23.784,-0.393 23.678,-1.09 23.678,-1.844 c 0,-1.719 0.429,-3.031 1.288,-3.936 0.86,-0.906 2.116,-1.359 3.769,-1.359 0.516,0 0.985,0.04 1.408,0.119 0.423,0.08 0.799,0.179 1.13,0.298 -0.026,0.145 -0.069,0.33 -0.129,0.555 -0.059,0.224 -0.122,0.404 -0.188,0.536 -0.291,-0.106 -0.618,-0.192 -0.982,-0.259 -0.363,-0.065 -0.743,-0.098 -1.14,-0.098 -1.163,0 -2.086,0.333 -2.767,1.001 -0.681,0.668 -1.021,1.716 -1.021,3.143 0,0.608 0.073,1.163 0.219,1.666 0.145,0.502 0.366,0.939 0.664,1.309 0.297,0.37 0.667,0.658 1.11,0.863 0.443,0.205 0.962,0.307 1.557,0.307 0.463,0 0.896,-0.033 1.299,-0.099 0.403,-0.066 0.737,-0.145 1.001,-0.238 0.053,0.132 0.103,0.31 0.149,0.535 0.047,0.225 0.07,0.423 0.07,0.595 -0.265,0.092 -0.625,0.175 -1.081,0.248 -0.456,0.072 -0.936,0.109 -1.438,0.109 m -10.927,0 C 16.916,3.451 16.255,3.315 15.686,3.044 15.117,2.773 14.645,2.4 14.268,1.924 13.892,1.448 13.61,0.887 13.425,0.239 13.24,-0.409 13.148,-1.104 13.148,-1.844 c 0,-0.74 0.092,-1.435 0.277,-2.082 0.185,-0.648 0.467,-1.21 0.843,-1.685 0.377,-0.477 0.849,-0.85 1.418,-1.121 0.569,-0.271 1.23,-0.407 1.983,-0.407 0.754,0 1.411,0.136 1.973,0.407 0.562,0.271 1.032,0.644 1.409,1.121 0.376,0.475 0.66,1.037 0.852,1.685 0.192,0.647 0.288,1.342 0.288,2.082 0,0.74 -0.096,1.435 -0.288,2.083 C 21.711,0.887 21.427,1.448 21.051,1.924 20.674,2.4 20.204,2.773 19.642,3.044 19.08,3.315 18.423,3.451 17.669,3.451 M 85.623,6.326 84.394,5.117 V 3.214 H 82.669 C 82.656,3.147 82.646,3.067 82.639,2.975 82.632,2.882 82.628,2.784 82.628,2.678 c 0,-0.106 0.004,-0.212 0.011,-0.318 0.007,-0.106 0.017,-0.192 0.03,-0.257 h 1.725 v -6.644 c 0,-0.912 0.233,-1.57 0.704,-1.973 0.468,-0.403 1.081,-0.604 1.834,-0.604 0.635,0 1.19,0.072 1.666,0.218 -0.04,0.396 -0.105,0.766 -0.198,1.11 -0.344,-0.119 -0.747,-0.178 -1.21,-0.178 -0.185,0 -0.367,0.016 -0.545,0.049 -0.179,0.033 -0.336,0.103 -0.476,0.209 -0.138,0.106 -0.252,0.254 -0.338,0.446 -0.086,0.191 -0.128,0.452 -0.128,0.783 v 6.584 h 2.736 c 0.014,0.065 0.023,0.151 0.03,0.257 0.007,0.106 0.01,0.212 0.01,0.318 0,0.106 -0.003,0.204 -0.01,0.297 -0.007,0.092 -0.017,0.172 -0.03,0.239 H 85.703 V 6.326 Z M 1.725,6.386 c 1.124,0 1.947,-0.242 2.47,-0.724 C 4.717,5.179 4.977,4.582 4.977,3.868 4.977,3.101 4.73,2.479 4.234,2.003 3.738,1.527 2.955,1.289 1.884,1.289 H 0 v 4.978 c 0.185,0.026 0.433,0.053 0.744,0.079 0.31,0.027 0.637,0.04 0.981,0.04 m 8.27,1.011 C 9.876,7.397 9.73,7.394 9.559,7.387 9.386,7.381 9.241,7.371 9.122,7.358 9.109,7.251 9.099,7.12 9.092,6.961 9.086,6.802 9.082,6.67 9.082,6.565 9.082,6.445 9.086,6.3 9.092,6.129 9.099,5.957 9.109,5.811 9.122,5.692 9.241,5.678 9.386,5.669 9.559,5.662 9.73,5.655 9.876,5.652 9.995,5.652 c 0.106,0 0.237,0.003 0.396,0.01 0.159,0.007 0.291,0.016 0.397,0.03 0.013,0.119 0.022,0.265 0.03,0.437 0.006,0.171 0.009,0.316 0.009,0.436 0,0.105 -0.003,0.237 -0.009,0.396 -0.008,0.159 -0.017,0.29 -0.03,0.397 -0.106,0.013 -0.238,0.023 -0.397,0.029 -0.159,0.007 -0.29,0.01 -0.396,0.01 M 1.586,7.575 C 1.361,7.575 1.107,7.569 0.823,7.556 0.538,7.543 0.258,7.523 -0.02,7.496 -0.298,7.47 -0.559,7.443 -0.803,7.417 -1.048,7.39 -1.236,7.371 -1.369,7.358 V -6.9 c 0.185,-0.027 0.407,-0.057 0.665,-0.089 0.258,-0.033 0.522,-0.061 0.794,-0.08 0.27,-0.02 0.538,-0.036 0.802,-0.049 0.265,-0.013 0.503,-0.021 0.714,-0.021 0.82,0 1.577,0.083 2.271,0.249 0.694,0.165 1.295,0.419 1.804,0.763 0.509,0.344 0.906,0.773 1.19,1.289 0.284,0.515 0.427,1.13 0.427,1.844 0,0.621 -0.09,1.154 -0.268,1.597 -0.179,0.442 -0.416,0.813 -0.714,1.11 C 6.019,0.011 5.678,0.242 5.295,0.407 4.911,0.572 4.515,0.681 4.105,0.734 4.409,0.827 4.703,0.965 4.987,1.151 5.272,1.336 5.519,1.564 5.731,1.835 5.942,2.106 6.111,2.41 6.236,2.747 6.362,3.084 6.425,3.458 6.425,3.868 6.425,5.137 6.009,6.072 5.176,6.674 4.343,7.275 3.146,7.575 1.586,7.575 m 59.138,0.14 c -0.066,0 -0.172,-0.004 -0.318,-0.01 C 60.261,7.698 60.149,7.688 60.07,7.675 V 3.094 c -0.265,0.092 -0.612,0.175 -1.041,0.248 -0.43,0.072 -0.863,0.109 -1.3,0.109 -0.74,0 -1.417,-0.126 -2.032,-0.377 -0.615,-0.251 -1.14,-0.611 -1.577,-1.08 -0.436,-0.47 -0.773,-1.045 -1.011,-1.726 -0.238,-0.681 -0.358,-1.457 -0.358,-2.33 0,-0.952 0.136,-1.752 0.407,-2.4 0.271,-0.647 0.637,-1.169 1.101,-1.566 0.462,-0.397 1.011,-0.681 1.646,-0.853 0.635,-0.171 1.315,-0.258 2.043,-0.258 0.661,0 1.296,0.047 1.904,0.139 0.607,0.093 1.116,0.205 1.525,0.337 V 7.675 c -0.078,0.013 -0.187,0.023 -0.326,0.03 -0.139,0.006 -0.248,0.01 -0.327,0.01" /></g></g></g></g></clipPath><clipPath
       clipPathUnits="userSpaceOnUse"
       id="clipPath6498"><g
         id="g6502"
         transform="translate(-360.68819,-181.22534)"><path
           d="m 0,0 v 68.945 l 59.858,34.477 59.858,-34.477 V 0 L 59.858,-34.478 Z"
           style="fill:#ffffff;fill-opacity:1;fill-rule:nonzero;stroke:none"
           id="path6500"
           inkscape:connector-curvature="0" /></g></clipPath><clipPath
       clipPathUnits="userSpaceOnUse"
       id="clipPath26-6-7"><path
         d="M 0,0 H 124.56 V 146 H 0 Z"
         id="path24-1-0"
         inkscape:connector-curvature="0" /></clipPath><clipPath
       clipPathUnits="userSpaceOnUse"
       id="clipPath1388"><g
         id="g1494"
         transform="translate(-14.145811,305.33831)"><g
           transform="translate(-233.08031,-307.38312)"
           id="g1392"><path
             inkscape:connector-curvature="0"
             id="path1390"
             style="fill:#afd3de;fill-opacity:1;fill-rule:nonzero;stroke:none"
             d="m 0,0 v -71.745 l 62.28,-35.873 62.28,35.873 V 0 L 62.28,35.872 Z M 4.844,-68.945 V -2.8 L 62.28,30.282 119.716,-2.8 V -68.945 L 62.28,-102.028 Z" /></g><g
           id="g1492"
           clip-path="url(#clipPath26-6-7)"
           transform="translate(-233.68867,-417.99916)"><g
             id="g1490"><g
               transform="translate(91.2842,80.4233)"
               id="g1396"><path
                 inkscape:connector-curvature="0"
                 id="path1394"
                 style="fill:#3792ad;fill-opacity:1;fill-rule:nonzero;stroke:none"
                 d="m 0,0 c -0.464,0.017 -0.914,-0.242 -1.122,-0.688 -0.277,-0.598 -0.017,-1.306 0.581,-1.583 0.596,-0.275 1.304,-0.016 1.581,0.58 0.276,0.597 0.016,1.303 -0.581,1.58 C 0.31,-0.041 0.155,-0.004 0,0" /></g><g
               transform="translate(51.7393,80.7539)"
               id="g1400"><path
                 inkscape:connector-curvature="0"
                 id="path1398"
                 style="fill:#3792ad;fill-opacity:1;fill-rule:nonzero;stroke:none"
                 d="m 0,0 c -0.101,0.009 -0.205,0.009 -0.311,-0.002 -0.841,-0.092 -1.449,-0.849 -1.357,-1.69 0.092,-0.84 0.849,-1.449 1.691,-1.357 0.841,0.093 1.45,0.85 1.357,1.69 C 1.3,-0.622 0.71,-0.066 0,0" /></g><g
               transform="translate(55.7095,83.6299)"
               id="g1404"><path
                 inkscape:connector-curvature="0"
                 id="path1402"
                 style="fill:#3792ad;fill-opacity:1;fill-rule:nonzero;stroke:none"
                 d="m 0,0 c -0.114,0.011 -0.23,0.01 -0.348,-0.003 -0.947,-0.104 -1.63,-0.955 -1.527,-1.901 0.103,-0.946 0.955,-1.631 1.902,-1.527 0.946,0.104 1.629,0.956 1.526,1.902 C 1.463,-0.701 0.798,-0.074 0,0" /></g><g
               transform="translate(94.0254,85.4243)"
               id="g1408"><path
                 inkscape:connector-curvature="0"
                 id="path1406"
                 style="fill:#3792ad;fill-opacity:1;fill-rule:nonzero;stroke:none"
                 d="m 0,0 c -0.119,0.011 -0.24,0.01 -0.363,-0.003 -0.987,-0.108 -1.7,-0.996 -1.592,-1.982 0.107,-0.986 0.995,-1.698 1.981,-1.59 0.987,0.108 1.699,0.995 1.591,1.981 C 1.522,-0.731 0.832,-0.078 0,0" /></g><g
               transform="translate(49.6733,76.9722)"
               id="g1412"><path
                 inkscape:connector-curvature="0"
                 id="path1410"
                 style="fill:#3792ad;fill-opacity:1;fill-rule:nonzero;stroke:none"
                 d="m 0,0 c -0.067,0.006 -0.135,0.006 -0.205,-0.002 -0.557,-0.061 -0.96,-0.562 -0.899,-1.118 0.061,-0.558 0.562,-0.96 1.12,-0.899 0.557,0.061 0.959,0.563 0.897,1.12 C 0.859,-0.411 0.47,-0.043 0,0" /></g><g
               transform="translate(60.4907,81.769)"
               id="g1416"><path
                 inkscape:connector-curvature="0"
                 id="path1414"
                 style="fill:#3792ad;fill-opacity:1;fill-rule:nonzero;stroke:none"
                 d="m 0,0 c -0.131,0.012 -0.264,0.011 -0.399,-0.004 -1.083,-0.118 -1.868,-1.093 -1.749,-2.177 0.119,-1.082 1.094,-1.864 2.178,-1.747 1.084,0.121 1.866,1.094 1.747,2.178 C 1.673,-0.801 0.913,-0.084 0,0" /></g><g
               transform="translate(88.8027,76.5762)"
               id="g1420"><path
                 inkscape:connector-curvature="0"
                 id="path1418"
                 style="fill:#68981c;fill-opacity:1;fill-rule:nonzero;stroke:none"
                 d="m 0,0 c -0.147,0.014 -0.299,0.013 -0.452,-0.004 -1.224,-0.134 -2.108,-1.236 -1.974,-2.46 0.134,-1.225 1.236,-2.108 2.46,-1.975 1.225,0.134 2.11,1.236 1.975,2.46 C 1.892,-0.907 1.033,-0.096 0,0" /></g><g
               transform="translate(85.3877,72.4468)"
               id="g1424"><path
                 inkscape:connector-curvature="0"
                 id="path1422"
                 style="fill:#3792ad;fill-opacity:1;fill-rule:nonzero;stroke:none"
                 d="m 0,0 c -0.052,0.005 -0.103,0.004 -0.155,-0.002 -0.42,-0.046 -0.725,-0.424 -0.679,-0.844 0.047,-0.42 0.425,-0.725 0.845,-0.679 0.422,0.046 0.724,0.427 0.678,0.846 C 0.649,-0.311 0.354,-0.033 0,0" /></g><g
               transform="translate(48.2432,72.958)"
               id="g1428"><path
                 inkscape:connector-curvature="0"
                 id="path1426"
                 style="fill:#3792ad;fill-opacity:1;fill-rule:nonzero;stroke:none"
                 d="m 0,0 c 0,0 0.225,-37.068 0.016,-36.951 -1.071,0.599 -1.991,0.66 -2.908,0.62 -3.775,-0.15 -8.381,-3.541 -8.511,-7.92 -0.045,-1.82 0.176,-3.542 1.578,-4.575 0.877,-0.64 1.975,-0.687 3.071,-0.687 3.641,0 8.425,3.638 8.512,7.917 v 40.195 z" /></g><g
               transform="translate(82.8301,70.6865)"
               id="g1432"><path
                 inkscape:connector-curvature="0"
                 id="path1430"
                 style="fill:#3792ad;fill-opacity:1;fill-rule:nonzero;stroke:none"
                 d="m 0,0 c -0.067,0.006 -0.137,0.005 -0.207,-0.002 -0.561,-0.062 -0.967,-0.567 -0.906,-1.127 0.062,-0.56 0.567,-0.965 1.127,-0.904 0.562,0.062 0.965,0.565 0.905,1.126 C 0.865,-0.415 0.473,-0.045 0,0" /></g><g
               transform="translate(69.332,74.3701)"
               id="g1436"><path
                 inkscape:connector-curvature="0"
                 id="path1434"
                 style="fill:#3792ad;fill-opacity:1;fill-rule:nonzero;stroke:none"
                 d="m 0,0 c -0.127,0.011 -0.257,0.011 -0.389,-0.003 -1.05,-0.116 -1.81,-1.062 -1.695,-2.114 0.114,-1.051 1.061,-1.812 2.113,-1.696 C 1.08,-3.697 1.84,-2.751 1.725,-1.7 1.624,-0.78 0.887,-0.083 0,0" /></g><g
               transform="translate(79.542,69.2207)"
               id="g1440"><path
                 inkscape:connector-curvature="0"
                 id="path1438"
                 style="fill:#3792ad;fill-opacity:1;fill-rule:nonzero;stroke:none"
                 d="M 0,0 C -0.085,0.008 -0.171,0.007 -0.259,-0.002 -0.96,-0.078 -1.466,-0.709 -1.39,-1.41 c 0.078,-0.702 0.707,-1.208 1.41,-1.131 0.701,0.077 1.207,0.707 1.129,1.409 C 1.083,-0.52 0.592,-0.056 0,0" /></g><g
               transform="translate(74.4131,71.1162)"
               id="g1444"><path
                 inkscape:connector-curvature="0"
                 id="path1442"
                 style="fill:#3792ad;fill-opacity:1;fill-rule:nonzero;stroke:none"
                 d="M 0,0 C -0.646,0.021 -1.274,-0.337 -1.563,-0.961 -1.95,-1.792 -1.588,-2.78 -0.757,-3.166 0.076,-3.553 1.063,-3.19 1.448,-2.358 1.834,-1.526 1.472,-0.539 0.641,-0.153 0.433,-0.058 0.216,-0.007 0,0" /></g><g
               transform="translate(79.3105,83.3086)"
               id="g1448"><path
                 inkscape:connector-curvature="0"
                 id="path1446"
                 style="fill:#68981c;fill-opacity:1;fill-rule:nonzero;stroke:none"
                 d="m 0,0 c -0.114,0.011 -0.229,0.01 -0.348,-0.003 -0.943,-0.103 -1.624,-0.952 -1.521,-1.894 0.103,-0.942 0.952,-1.623 1.895,-1.52 0.943,0.102 1.623,0.951 1.52,1.893 C 1.456,-0.699 0.795,-0.074 0,0" /></g><g
               transform="translate(74.3867,85.4897)"
               id="g1452"><path
                 inkscape:connector-curvature="0"
                 id="path1450"
                 style="fill:#68981c;fill-opacity:1;fill-rule:nonzero;stroke:none"
                 d="m 0,0 c -0.319,-0.019 -0.636,-0.13 -0.91,-0.34 -0.728,-0.555 -0.868,-1.597 -0.311,-2.326 0.556,-0.728 1.599,-0.867 2.326,-0.311 0.729,0.556 0.868,1.598 0.312,2.328 C 1.069,-0.194 0.532,0.031 0,0" /></g><g
               transform="translate(83.5244,80.1123)"
               id="g1456"><path
                 inkscape:connector-curvature="0"
                 id="path1454"
                 style="fill:#68981c;fill-opacity:1;fill-rule:nonzero;stroke:none"
                 d="m 0,0 c -0.26,0.017 -0.53,-0.014 -0.797,-0.1 l -0.102,-0.036 c -1.085,-0.413 -1.659,-1.613 -1.276,-2.673 0.366,-1.026 1.488,-1.557 2.552,-1.213 l 0.105,0.037 C 1.567,-3.571 2.14,-2.372 1.759,-1.312 1.482,-0.545 0.782,-0.053 0,0" /></g><g
               transform="translate(70.8193,83.4927)"
               id="g1460"><path
                 inkscape:connector-curvature="0"
                 id="path1458"
                 style="fill:#68981c;fill-opacity:1;fill-rule:nonzero;stroke:none"
                 d="m 0,0 c -0.085,0.008 -0.172,0.007 -0.261,-0.002 -0.699,-0.077 -1.205,-0.708 -1.13,-1.409 0.078,-0.701 0.708,-1.207 1.41,-1.13 0.702,0.076 1.207,0.706 1.129,1.408 C 1.083,-0.52 0.592,-0.055 0,0" /></g><g
               transform="translate(64.9844,78.5625)"
               id="g1464"><path
                 inkscape:connector-curvature="0"
                 id="path1462"
                 style="fill:#3792ad;fill-opacity:1;fill-rule:nonzero;stroke:none"
                 d="m 0,0 c -0.161,0.015 -0.325,0.014 -0.491,-0.004 -1.332,-0.146 -2.294,-1.345 -2.149,-2.677 0.146,-1.332 1.345,-2.294 2.677,-2.148 1.332,0.146 2.294,1.343 2.148,2.675 C 2.058,-0.988 1.124,-0.105 0,0" /></g><g
               transform="translate(68.207,80.4951)"
               id="g1468"><path
                 inkscape:connector-curvature="0"
                 id="path1466"
                 style="fill:#68981c;fill-opacity:1;fill-rule:nonzero;stroke:none"
                 d="m 0,0 c -0.059,0.005 -0.12,0.004 -0.182,-0.002 -0.489,-0.054 -0.843,-0.495 -0.789,-0.986 0.053,-0.491 0.494,-0.845 0.985,-0.791 0.491,0.053 0.846,0.495 0.792,0.985 C 0.758,-0.364 0.414,-0.039 0,0" /></g><g
               transform="translate(54.8647,72.5947)"
               id="g1472"><path
                 inkscape:connector-curvature="0"
                 id="path1470"
                 style="fill:#68981c;fill-opacity:1;fill-rule:nonzero;stroke:none"
                 d="m 0,0 c -0.135,0.012 -0.273,0.011 -0.413,-0.005 -1.121,-0.122 -1.932,-1.131 -1.809,-2.253 0.122,-1.121 1.131,-1.93 2.253,-1.807 1.122,0.122 1.931,1.129 1.809,2.253 C 1.732,-0.832 0.947,-0.088 0,0" /></g><g
               transform="translate(95.291,70.5098)"
               id="g1476"><path
                 inkscape:connector-curvature="0"
                 id="path1474"
                 style="fill:#68981c;fill-opacity:1;fill-rule:nonzero;stroke:none"
                 d="m 0,0 c -0.06,0.005 -0.119,0.005 -0.18,-0.001 -0.491,-0.054 -0.846,-0.496 -0.793,-0.987 0.055,-0.49 0.494,-0.845 0.985,-0.792 0.492,0.055 0.847,0.496 0.793,0.986 C 0.759,-0.364 0.414,-0.039 0,0" /></g><g
               transform="translate(59.9067,74.0483)"
               id="g1480"><path
                 inkscape:connector-curvature="0"
                 id="path1478"
                 style="fill:#68981c;fill-opacity:1;fill-rule:nonzero;stroke:none"
                 d="m 0,0 c -0.098,0.01 -0.198,0.008 -0.3,-0.003 -0.812,-0.089 -1.4,-0.82 -1.31,-1.632 0.088,-0.813 0.819,-1.402 1.632,-1.312 0.814,0.089 1.4,0.821 1.311,1.634 C 1.256,-0.603 0.686,-0.064 0,0" /></g><g
               transform="translate(92.4541,73.1548)"
               id="g1484"><path
                 inkscape:connector-curvature="0"
                 id="path1482"
                 style="fill:#68981c;fill-opacity:1;fill-rule:nonzero;stroke:none"
                 d="m 0,0 c -0.085,0.008 -0.171,0.008 -0.258,-0.002 -0.701,-0.077 -1.208,-0.708 -1.132,-1.409 0.077,-0.701 0.708,-1.208 1.409,-1.131 0.702,0.077 1.209,0.708 1.132,1.409 C 1.084,-0.521 0.592,-0.055 0,0" /></g><g
               transform="translate(11.3579,101.0356)"
               id="g1488"><path
                 inkscape:connector-curvature="0"
                 id="path1486"
                 style="fill:#393536;fill-opacity:1;fill-rule:nonzero;stroke:none"
                 d="M 0,0 H 2.023 C 2.551,0 3.047,-0.052 3.51,-0.158 3.973,-0.264 4.376,-0.435 4.72,-0.673 5.063,-0.912 5.334,-1.218 5.533,-1.596 5.731,-1.972 5.83,-2.439 5.83,-2.994 5.83,-3.549 5.715,-4.012 5.483,-4.382 5.252,-4.752 4.944,-5.05 4.561,-5.274 4.177,-5.5 3.738,-5.658 3.242,-5.75 2.747,-5.843 2.241,-5.89 1.725,-5.89 1.381,-5.89 1.054,-5.879 0.744,-5.859 0.433,-5.84 0.185,-5.817 0,-5.79 Z m 57.789,2.281 c 0.436,0 0.86,-0.043 1.269,-0.129 0.41,-0.086 0.747,-0.181 1.012,-0.287 v -7.596 c -0.225,-0.065 -0.536,-0.122 -0.932,-0.168 -0.396,-0.047 -0.813,-0.069 -1.249,-0.069 -1.203,0 -2.132,0.313 -2.787,0.941 -0.654,0.628 -0.982,1.63 -0.982,3.004 0,0.635 0.076,1.217 0.228,1.746 0.152,0.529 0.381,0.981 0.684,1.359 0.303,0.376 0.685,0.67 1.14,0.882 0.456,0.211 0.995,0.317 1.617,0.317 m 35.964,0.02 c 1.059,0 1.848,-0.37 2.37,-1.111 0.523,-0.74 0.784,-1.752 0.784,-3.034 0,-1.282 -0.261,-2.293 -0.784,-3.034 -0.522,-0.74 -1.311,-1.11 -2.37,-1.11 -1.057,0 -1.847,0.37 -2.369,1.11 -0.522,0.741 -0.783,1.752 -0.783,3.034 0,1.282 0.261,2.294 0.783,3.034 0.522,0.741 1.312,1.111 2.369,1.111 m -57.184,0 c 1.057,0 1.847,-0.37 2.37,-1.111 0.522,-0.74 0.782,-1.752 0.782,-3.034 0,-1.282 -0.26,-2.293 -0.782,-3.034 -0.523,-0.74 -1.313,-1.11 -2.37,-1.11 -1.059,0 -1.848,0.37 -2.37,1.11 -0.523,0.741 -0.784,1.752 -0.784,3.034 0,1.282 0.261,2.294 0.784,3.034 0.522,0.741 1.311,1.111 2.37,1.111 m -18.9,0 c 1.058,0 1.848,-0.37 2.37,-1.111 0.522,-0.74 0.783,-1.752 0.783,-3.034 0,-1.282 -0.261,-2.293 -0.783,-3.034 -0.522,-0.74 -1.312,-1.11 -2.37,-1.11 -1.057,0 -1.847,0.37 -2.37,1.11 -0.522,0.741 -0.783,1.752 -0.783,3.034 0,1.282 0.261,2.294 0.783,3.034 0.523,0.741 1.313,1.111 2.37,1.111 M 8.507,3.214 C 8.493,3.147 8.484,3.061 8.478,2.955 8.471,2.849 8.468,2.743 8.468,2.638 8.468,2.532 8.471,2.433 8.478,2.34 8.484,2.248 8.493,2.168 8.507,2.103 H 9.776 V -6.9 c 0.08,-0.013 0.192,-0.024 0.338,-0.03 0.145,-0.007 0.251,-0.01 0.317,-0.01 0.079,0 0.188,0.003 0.327,0.01 0.139,0.006 0.248,0.017 0.327,0.03 V 3.214 Z m 92.425,0.039 c -0.092,0 -0.188,-0.004 -0.287,-0.01 -0.098,-0.007 -0.201,-0.017 -0.308,-0.029 V -6.9 c 0.08,-0.013 0.192,-0.024 0.338,-0.03 0.145,-0.007 0.251,-0.01 0.317,-0.01 0.079,0 0.189,0.003 0.327,0.01 0.139,0.006 0.248,0.017 0.328,0.03 v 5.195 c 0,1.322 0.27,2.267 0.811,2.836 0.543,0.568 1.265,0.852 2.164,0.852 h 0.187 c 0.061,0 0.142,-0.006 0.248,-0.019 0.04,0.198 0.06,0.403 0.06,0.615 0,0.198 -0.02,0.409 -0.06,0.635 -0.092,0.012 -0.174,0.019 -0.248,0.019 h -0.208 c -0.78,0 -1.408,-0.169 -1.883,-0.506 -0.477,-0.337 -0.846,-0.75 -1.111,-1.239 0,0.264 -0.007,0.559 -0.021,0.882 -0.012,0.324 -0.032,0.605 -0.058,0.844 -0.106,0.012 -0.205,0.022 -0.298,0.029 -0.092,0.006 -0.192,0.01 -0.298,0.01 m -36.672,0 c -0.066,0 -0.171,-0.004 -0.317,-0.01 C 63.798,3.236 63.685,3.226 63.606,3.214 v -5.772 c 0,-0.952 0.12,-1.725 0.358,-2.32 0.237,-0.595 0.557,-1.061 0.961,-1.398 0.404,-0.337 0.879,-0.565 1.428,-0.683 0.549,-0.12 1.133,-0.18 1.755,-0.18 0.635,0 1.253,0.05 1.853,0.15 0.603,0.098 1.148,0.214 1.637,0.346 v 9.857 c -0.078,0.012 -0.188,0.022 -0.326,0.029 -0.14,0.006 -0.249,0.01 -0.328,0.01 -0.067,0 -0.172,-0.004 -0.318,-0.01 C 70.482,3.236 70.369,3.226 70.29,3.214 v -8.945 c -0.265,-0.079 -0.569,-0.141 -0.914,-0.188 -0.343,-0.047 -0.732,-0.069 -1.169,-0.069 -0.515,0 -0.979,0.049 -1.388,0.148 -0.41,0.1 -0.757,0.278 -1.041,0.536 -0.285,0.258 -0.499,0.614 -0.644,1.071 -0.146,0.456 -0.218,1.041 -0.218,1.755 V 3.214 C 64.835,3.226 64.727,3.236 64.587,3.243 64.449,3.249 64.34,3.253 64.26,3.253 M 93.753,3.451 C 93,3.451 92.34,3.315 91.771,3.044 91.203,2.773 90.73,2.4 90.353,1.924 89.976,1.448 89.695,0.887 89.51,0.239 c -0.186,-0.648 -0.278,-1.343 -0.278,-2.083 0,-0.74 0.092,-1.435 0.278,-2.082 0.185,-0.648 0.466,-1.21 0.843,-1.685 0.377,-0.477 0.85,-0.85 1.418,-1.121 0.569,-0.271 1.229,-0.407 1.982,-0.407 0.755,0 1.412,0.136 1.974,0.407 0.562,0.271 1.031,0.644 1.408,1.121 0.377,0.475 0.662,1.037 0.854,1.685 0.191,0.647 0.287,1.342 0.287,2.082 0,0.74 -0.096,1.435 -0.287,2.083 -0.192,0.648 -0.477,1.209 -0.854,1.685 -0.377,0.476 -0.846,0.849 -1.408,1.12 -0.562,0.271 -1.219,0.407 -1.974,0.407 m -15.13,0 C 77.816,3.451 77.107,3.315 76.491,3.044 75.876,2.773 75.364,2.4 74.955,1.924 74.544,1.448 74.234,0.889 74.022,0.248 73.811,-0.393 73.705,-1.09 73.705,-1.844 c 0,-1.719 0.429,-3.031 1.289,-3.936 0.859,-0.906 2.115,-1.359 3.768,-1.359 0.516,0 0.985,0.04 1.407,0.119 0.424,0.08 0.801,0.179 1.131,0.298 -0.026,0.145 -0.07,0.33 -0.128,0.555 -0.06,0.224 -0.123,0.404 -0.189,0.536 -0.291,-0.106 -0.618,-0.192 -0.982,-0.259 -0.364,-0.065 -0.743,-0.098 -1.139,-0.098 -1.164,0 -2.086,0.333 -2.767,1.001 -0.682,0.668 -1.022,1.716 -1.022,3.143 0,0.608 0.073,1.163 0.218,1.666 0.146,0.502 0.367,0.939 0.665,1.309 0.297,0.37 0.667,0.658 1.11,0.863 0.443,0.205 0.962,0.307 1.557,0.307 0.461,0 0.895,-0.033 1.299,-0.099 0.403,-0.066 0.737,-0.145 1.001,-0.238 0.054,0.132 0.103,0.31 0.15,0.535 0.045,0.225 0.069,0.423 0.069,0.595 -0.266,0.092 -0.625,0.175 -1.081,0.248 -0.456,0.072 -0.936,0.109 -1.438,0.109 m -31.126,0 C 47.06,3.451 46.657,3.388 46.288,3.263 45.917,3.137 45.59,2.975 45.306,2.777 45.022,2.579 44.773,2.357 44.562,2.113 44.35,1.868 44.179,1.626 44.047,1.388 c 0,0.265 -0.007,0.576 -0.02,0.933 -0.014,0.357 -0.034,0.654 -0.06,0.893 -0.106,0.012 -0.205,0.022 -0.297,0.029 -0.092,0.006 -0.192,0.01 -0.298,0.01 -0.093,0 -0.188,-0.004 -0.287,-0.01 C 42.986,3.236 42.883,3.226 42.777,3.214 V -6.9 c 0.08,-0.013 0.192,-0.024 0.337,-0.03 0.146,-0.007 0.252,-0.01 0.318,-0.01 0.079,0 0.188,0.003 0.327,0.01 0.139,0.006 0.248,0.017 0.327,0.03 v 4.997 c 0,0.661 0.086,1.249 0.258,1.765 0.172,0.516 0.406,0.948 0.704,1.299 0.297,0.35 0.651,0.618 1.061,0.803 0.41,0.185 0.846,0.278 1.309,0.278 0.7,0 1.226,-0.245 1.576,-0.734 0.351,-0.49 0.526,-1.296 0.526,-2.42 V -6.9 c 0.079,-0.013 0.191,-0.024 0.337,-0.03 0.146,-0.007 0.251,-0.01 0.317,-0.01 0.08,0 0.189,0.003 0.328,0.01 0.138,0.006 0.247,0.017 0.327,0.03 v 6.385 c 0,1.256 -0.264,2.231 -0.794,2.925 -0.528,0.694 -1.374,1.041 -2.538,1.041 m -10.928,0 C 35.815,3.451 35.153,3.315 34.585,3.044 34.016,2.773 33.544,2.4 33.167,1.924 32.79,1.448 32.51,0.887 32.324,0.239 c -0.185,-0.648 -0.277,-1.343 -0.277,-2.083 0,-0.74 0.092,-1.435 0.277,-2.082 0.186,-0.648 0.466,-1.21 0.843,-1.685 0.377,-0.477 0.849,-0.85 1.418,-1.121 0.568,-0.271 1.23,-0.407 1.984,-0.407 0.753,0 1.41,0.136 1.973,0.407 0.562,0.271 1.031,0.644 1.407,1.121 0.377,0.475 0.661,1.037 0.853,1.685 0.192,0.647 0.288,1.342 0.288,2.082 0,0.74 -0.096,1.435 -0.288,2.083 -0.192,0.648 -0.476,1.209 -0.853,1.685 -0.376,0.476 -0.845,0.849 -1.407,1.12 -0.563,0.271 -1.22,0.407 -1.973,0.407 m -7.973,0 C 27.789,3.451 27.079,3.315 26.464,3.044 25.849,2.773 25.337,2.4 24.927,1.924 24.518,1.448 24.207,0.889 23.996,0.248 23.784,-0.393 23.678,-1.09 23.678,-1.844 c 0,-1.719 0.429,-3.031 1.288,-3.936 0.86,-0.906 2.116,-1.359 3.769,-1.359 0.516,0 0.985,0.04 1.408,0.119 0.423,0.08 0.799,0.179 1.13,0.298 -0.026,0.145 -0.069,0.33 -0.129,0.555 -0.059,0.224 -0.122,0.404 -0.188,0.536 -0.291,-0.106 -0.618,-0.192 -0.982,-0.259 -0.363,-0.065 -0.743,-0.098 -1.14,-0.098 -1.163,0 -2.086,0.333 -2.767,1.001 -0.681,0.668 -1.021,1.716 -1.021,3.143 0,0.608 0.073,1.163 0.219,1.666 0.145,0.502 0.366,0.939 0.664,1.309 0.297,0.37 0.667,0.658 1.11,0.863 0.443,0.205 0.962,0.307 1.557,0.307 0.463,0 0.896,-0.033 1.299,-0.099 0.403,-0.066 0.737,-0.145 1.001,-0.238 0.053,0.132 0.103,0.31 0.149,0.535 0.047,0.225 0.07,0.423 0.07,0.595 -0.265,0.092 -0.625,0.175 -1.081,0.248 -0.456,0.072 -0.936,0.109 -1.438,0.109 m -10.927,0 C 16.916,3.451 16.255,3.315 15.686,3.044 15.117,2.773 14.645,2.4 14.268,1.924 13.892,1.448 13.61,0.887 13.425,0.239 13.24,-0.409 13.148,-1.104 13.148,-1.844 c 0,-0.74 0.092,-1.435 0.277,-2.082 0.185,-0.648 0.467,-1.21 0.843,-1.685 0.377,-0.477 0.849,-0.85 1.418,-1.121 0.569,-0.271 1.23,-0.407 1.983,-0.407 0.754,0 1.411,0.136 1.973,0.407 0.562,0.271 1.032,0.644 1.409,1.121 0.376,0.475 0.66,1.037 0.852,1.685 0.192,0.647 0.288,1.342 0.288,2.082 0,0.74 -0.096,1.435 -0.288,2.083 C 21.711,0.887 21.427,1.448 21.051,1.924 20.674,2.4 20.204,2.773 19.642,3.044 19.08,3.315 18.423,3.451 17.669,3.451 M 85.623,6.326 84.394,5.117 V 3.214 H 82.669 C 82.656,3.147 82.646,3.067 82.639,2.975 82.632,2.882 82.628,2.784 82.628,2.678 c 0,-0.106 0.004,-0.212 0.011,-0.318 0.007,-0.106 0.017,-0.192 0.03,-0.257 h 1.725 v -6.644 c 0,-0.912 0.233,-1.57 0.704,-1.973 0.468,-0.403 1.081,-0.604 1.834,-0.604 0.635,0 1.19,0.072 1.666,0.218 -0.04,0.396 -0.105,0.766 -0.198,1.11 -0.344,-0.119 -0.747,-0.178 -1.21,-0.178 -0.185,0 -0.367,0.016 -0.545,0.049 -0.179,0.033 -0.336,0.103 -0.476,0.209 -0.138,0.106 -0.252,0.254 -0.338,0.446 -0.086,0.191 -0.128,0.452 -0.128,0.783 v 6.584 h 2.736 c 0.014,0.065 0.023,0.151 0.03,0.257 0.007,0.106 0.01,0.212 0.01,0.318 0,0.106 -0.003,0.204 -0.01,0.297 -0.007,0.092 -0.017,0.172 -0.03,0.239 H 85.703 V 6.326 Z M 1.725,6.386 c 1.124,0 1.947,-0.242 2.47,-0.724 C 4.717,5.179 4.977,4.582 4.977,3.868 4.977,3.101 4.73,2.479 4.234,2.003 3.738,1.527 2.955,1.289 1.884,1.289 H 0 v 4.978 c 0.185,0.026 0.433,0.053 0.744,0.079 0.31,0.027 0.637,0.04 0.981,0.04 m 8.27,1.011 C 9.876,7.397 9.73,7.394 9.559,7.387 9.386,7.381 9.241,7.371 9.122,7.358 9.109,7.251 9.099,7.12 9.092,6.961 9.086,6.802 9.082,6.67 9.082,6.565 9.082,6.445 9.086,6.3 9.092,6.129 9.099,5.957 9.109,5.811 9.122,5.692 9.241,5.678 9.386,5.669 9.559,5.662 9.73,5.655 9.876,5.652 9.995,5.652 c 0.106,0 0.237,0.003 0.396,0.01 0.159,0.007 0.291,0.016 0.397,0.03 0.013,0.119 0.022,0.265 0.03,0.437 0.006,0.171 0.009,0.316 0.009,0.436 0,0.105 -0.003,0.237 -0.009,0.396 -0.008,0.159 -0.017,0.29 -0.03,0.397 -0.106,0.013 -0.238,0.023 -0.397,0.029 -0.159,0.007 -0.29,0.01 -0.396,0.01 M 1.586,7.575 C 1.361,7.575 1.107,7.569 0.823,7.556 0.538,7.543 0.258,7.523 -0.02,7.496 -0.298,7.47 -0.559,7.443 -0.803,7.417 -1.048,7.39 -1.236,7.371 -1.369,7.358 V -6.9 c 0.185,-0.027 0.407,-0.057 0.665,-0.089 0.258,-0.033 0.522,-0.061 0.794,-0.08 0.27,-0.02 0.538,-0.036 0.802,-0.049 0.265,-0.013 0.503,-0.021 0.714,-0.021 0.82,0 1.577,0.083 2.271,0.249 0.694,0.165 1.295,0.419 1.804,0.763 0.509,0.344 0.906,0.773 1.19,1.289 0.284,0.515 0.427,1.13 0.427,1.844 0,0.621 -0.09,1.154 -0.268,1.597 -0.179,0.442 -0.416,0.813 -0.714,1.11 C 6.019,0.011 5.678,0.242 5.295,0.407 4.911,0.572 4.515,0.681 4.105,0.734 4.409,0.827 4.703,0.965 4.987,1.151 5.272,1.336 5.519,1.564 5.731,1.835 5.942,2.106 6.111,2.41 6.236,2.747 6.362,3.084 6.425,3.458 6.425,3.868 6.425,5.137 6.009,6.072 5.176,6.674 4.343,7.275 3.146,7.575 1.586,7.575 m 59.138,0.14 c -0.066,0 -0.172,-0.004 -0.318,-0.01 C 60.261,7.698 60.149,7.688 60.07,7.675 V 3.094 c -0.265,0.092 -0.612,0.175 -1.041,0.248 -0.43,0.072 -0.863,0.109 -1.3,0.109 -0.74,0 -1.417,-0.126 -2.032,-0.377 -0.615,-0.251 -1.14,-0.611 -1.577,-1.08 -0.436,-0.47 -0.773,-1.045 -1.011,-1.726 -0.238,-0.681 -0.358,-1.457 -0.358,-2.33 0,-0.952 0.136,-1.752 0.407,-2.4 0.271,-0.647 0.637,-1.169 1.101,-1.566 0.462,-0.397 1.011,-0.681 1.646,-0.853 0.635,-0.171 1.315,-0.258 2.043,-0.258 0.661,0 1.296,0.047 1.904,0.139 0.607,0.093 1.116,0.205 1.525,0.337 V 7.675 c -0.078,0.013 -0.187,0.023 -0.326,0.03 -0.139,0.006 -0.248,0.01 -0.327,0.01" /></g></g></g></g></clipPath><clipPath
       clipPathUnits="userSpaceOnUse"
       id="clipPath1619"><g
         id="g1623"
         transform="translate(-249.01287,-69.994373)"><path
           d="m 0,0 v 68.945 l 59.858,34.477 59.858,-34.477 V 0 L 59.858,-34.478 Z"
           style="fill:#ffffff;fill-opacity:1;fill-rule:nonzero;stroke:none"
           id="path1621"
           inkscape:connector-curvature="0" /></g></clipPath><filter
       inkscape:collect="always"
       style="color-interpolation-filters:sRGB"
       id="filter1633"
       x="-0.022786557"
       width="1.0455731"
       y="-0.025349951"
       height="1.0506999"><feGaussianBlur
         inkscape:collect="always"
         stdDeviation="2.6554066"
         id="feGaussianBlur1635" /></filter><clipPath
       id="clipPath1127"
       clipPathUnits="userSpaceOnUse"><path
         inkscape:connector-curvature="0"
         id="path1125"
         d="M 0,0 H 124.56 V 146 H 0 Z" /></clipPath></defs><sodipodi:namedview
     pagecolor="#ffffff"
     bordercolor="#666666"
     borderopacity="1"
     objecttolerance="10"
     gridtolerance="10"
     guidetolerance="10"
     inkscape:pageopacity="0"
     inkscape:pageshadow="2"
     inkscape:window-width="1847"
     inkscape:window-height="1010"
     id="namedview4"
     showgrid="false"
     inkscape:zoom="0.30308219"
     inkscape:cx="535.27176"
     inkscape:cy="441.41093"
     inkscape:window-x="67"
     inkscape:window-y="34"
     inkscape:window-maximized="0"
     inkscape:current-layer="g10" /><g
     id="g10"
     inkscape:groupmode="layer"
     inkscape:label="Bioconductor"
     transform="matrix(1.3333333,0,0,-1.3333333,0,194.66667)"><g
   transform="translate(250.58616,108.70571)"
   id="g4920-2-7"
   clip-path="url(#clipPath1619)"><rect
     style="fill:#ff0000;fill-opacity:1;stroke:#ff0000;stroke-width:2.69191694;stroke-miterlimit:4;stroke-dasharray:none;stroke-opacity:1"
     id="rect4637-5-54-8"
     width="233.56412"
     height="23.138502"
     x="-254.53844"
     y="168.91679"
     transform="matrix(0.86923286,-0.49440291,-0.49440291,-0.86923286,0,0)"
     ry="0" /><rect
     style="fill:#ffa52c;fill-opacity:1;stroke:#ffa52c;stroke-width:2.69191694;stroke-miterlimit:4;stroke-dasharray:none;stroke-opacity:1"
     id="rect4637-3-62-7-6"
     width="233.56412"
     height="23.138502"
     x="-254.53844"
     y="145.77829"
     transform="matrix(0.86923286,-0.49440291,-0.49440291,-0.86923286,0,0)"
     ry="0" /><rect
     style="fill:#ffff41;fill-opacity:1;stroke:#ffff41;stroke-width:2.69191694;stroke-miterlimit:4;stroke-dasharray:none;stroke-opacity:1"
     id="rect4637-3-6-9-4-8"
     width="233.56412"
     height="23.138502"
     x="-254.53844"
     y="122.63979"
     transform="matrix(0.86923286,-0.49440291,-0.49440291,-0.86923286,0,0)"
     ry="0"
     inkscape:transform-center-x="5.582562"
     inkscape:transform-center-y="10.467319" /><rect
     style="fill:#008018;fill-opacity:1;stroke:#008018;stroke-width:2.69191694;stroke-miterlimit:4;stroke-dasharray:none;stroke-opacity:1"
     id="rect4637-3-6-7-1-4-8"
     width="233.56412"
     height="23.138502"
     x="-254.53844"
     y="99.501266"
     transform="matrix(0.86923286,-0.49440291,-0.49440291,-0.86923286,0,0)"
     ry="0"
     inkscape:transform-center-x="5.5825575"
     inkscape:transform-center-y="10.467311" /><rect
     style="fill:#0000f8;fill-opacity:0.97222218;stroke:#0000f9;stroke-width:2.69191694;stroke-miterlimit:4;stroke-dasharray:none;stroke-opacity:1"
     id="rect4637-3-6-7-5-2-3-4"
     width="233.56412"
     height="23.138502"
     x="-254.53844"
     y="76.362778"
     transform="matrix(0.86923286,-0.49440291,-0.49440291,-0.86923286,0,0)"
     ry="0"
     inkscape:transform-center-x="5.58256"
     inkscape:transform-center-y="10.467316" /><rect
     style="fill:#86007d;fill-opacity:1;stroke:#86007d;stroke-width:2.69191694;stroke-miterlimit:4;stroke-dasharray:none;stroke-opacity:1"
     id="rect4637-3-6-7-3-7-0-3"
     width="233.56412"
     height="23.138502"
     x="-254.53844"
     y="53.224274"
     transform="matrix(0.86923286,-0.49440291,-0.49440291,-0.86923286,0,0)"
     ry="0"
     inkscape:transform-center-x="5.5825586"
     inkscape:transform-center-y="10.467313" /><rect
     y="-85.432152"
     x="-321.01505"
     height="251.39993"
     width="279.6814"
     id="rect6190-2-1"
     style="fill:#ffffff;fill-opacity:0.78431373;stroke:none;stroke-width:2.22027564;stroke-miterlimit:4;stroke-dasharray:none;stroke-opacity:1;filter:url(#filter1633)"
     transform="scale(1,-1)" /></g><g
   transform="translate(-395.42191,-160.558)"
   clip-path="url(#clipPath26)"
   id="g22" />
<g
   transform="translate(247.52402,110.45548)"
   id="g4920-7-9"
   clip-path="url(#clipPath1388)"><rect
     style="fill:#ff0000;fill-opacity:1;stroke:#ff0000;stroke-width:2.69191694;stroke-miterlimit:4;stroke-dasharray:none;stroke-opacity:1"
     id="rect4637-5-5-3"
     width="233.56412"
     height="23.138502"
     x="-254.53844"
     y="168.91679"
     transform="matrix(0.86923286,-0.49440291,-0.49440291,-0.86923286,0,0)"
     ry="0" /><rect
     style="fill:#ffa52c;fill-opacity:1;stroke:#ffa52c;stroke-width:2.69191694;stroke-miterlimit:4;stroke-dasharray:none;stroke-opacity:1"
     id="rect4637-3-62-3-6"
     width="233.56412"
     height="23.138502"
     x="-254.53844"
     y="145.77829"
     transform="matrix(0.86923286,-0.49440291,-0.49440291,-0.86923286,0,0)"
     ry="0" /><rect
     style="fill:#ead018;fill-opacity:1;stroke:#ead018;stroke-width:2.69191694;stroke-miterlimit:4;stroke-dasharray:none;stroke-opacity:1"
     id="rect4637-3-6-9-5-0"
     width="233.56412"
     height="23.138502"
     x="-254.53844"
     y="122.63979"
     transform="matrix(0.86923286,-0.49440291,-0.49440291,-0.86923286,0,0)"
     ry="0"
     inkscape:transform-center-x="5.582562"
     inkscape:transform-center-y="10.467319" /><rect
     style="fill:#008018;fill-opacity:1;stroke:#008018;stroke-width:2.69191694;stroke-miterlimit:4;stroke-dasharray:none;stroke-opacity:1"
     id="rect4637-3-6-7-1-6-6"
     width="233.56412"
     height="23.138502"
     x="-254.53844"
     y="99.501266"
     transform="matrix(0.86923286,-0.49440291,-0.49440291,-0.86923286,0,0)"
     ry="0"
     inkscape:transform-center-x="5.5825575"
     inkscape:transform-center-y="10.467311" /><rect
     style="fill:#0000f8;fill-opacity:0.97222218;stroke:#0000f9;stroke-width:2.69191694;stroke-miterlimit:4;stroke-dasharray:none;stroke-opacity:1"
     id="rect4637-3-6-7-5-2-2-2"
     width="233.56412"
     height="23.138502"
     x="-254.53844"
     y="76.362778"
     transform="matrix(0.86923286,-0.49440291,-0.49440291,-0.86923286,0,0)"
     ry="0"
     inkscape:transform-center-x="5.58256"
     inkscape:transform-center-y="10.467316" /><rect
     style="fill:#86007d;fill-opacity:1;stroke:#86007d;stroke-width:2.69191694;stroke-miterlimit:4;stroke-dasharray:none;stroke-opacity:1"
     id="rect4637-3-6-7-3-7-9-6"
     width="233.56412"
     height="23.138502"
     x="-254.53844"
     y="53.224274"
     transform="matrix(0.86923286,-0.49440291,-0.49440291,-0.86923286,0,0)"
     ry="0"
     inkscape:transform-center-x="5.5825586"
     inkscape:transform-center-y="10.467313" /></g><g
   inkscape:label="Bioconductor"
   id="g1111"
   transform="translate(223.53357,-56.456814)"><text
   y="-136.44231"
   x="-106.76559"
   id="text1227-3"
   style="font-variant:normal;font-weight:300;font-stretch:normal;font-size:4.00000095px;font-family:'Aller Light';-inkscape-font-specification:Aller-Light;writing-mode:lr-tb;fill:#000000;fill-opacity:1;fill-rule:nonzero;stroke:none;stroke-width:0.99999994"
   transform="matrix(0.86677474,0.49869987,0.49869987,-0.86677474,0,0)"><tspan
     style="stroke-width:0.99999994"
     id="tspan1225-6"
     sodipodi:role="line"
     y="-136.44231"
     x="-106.76559 -103.9936 -101.2216 -98.569595 -97.985596 -95.861595 -95.0056 -92.945595 -91.325592 -89.265594 -87.213593 -85.109596 -83.045593 -81.361595 -80.241592 -78.181595 -77.297592 -76.713593 -74.653587 -73.533592">www.bioconductor.org</tspan></text>

</g>
</g></svg>